<svg width="400" height="400" viewBox="0 0 400 400" xmlns="http://www.w3.org/2000/svg">
<defs>
<filter id="shadow" x="-20%" y="-20%" width="140%" height="140%"><feDropShadow dx="2" dy="4" stdDeviation="3" flood-opacity="0.3"/></filter>
<filter id="glow"><feGaussianBlur in="SourceGraphic" stdDeviation="8" result="blur"/><feMerge><feMergeNode in="blur"/><feMergeNode in="SourceGraphic"/></feMerge></filter>
<filter id="glow-strong"><feGaussianBlur in="SourceGraphic" stdDeviation="15" result="blur"/><feMerge><feMergeNode in="blur"/><feMergeNode in="blur"/><feMergeNode in="SourceGraphic"/></feMerge></filter>
<linearGradient id="bg-sky" x1="0%" y1="0%" x2="0%" y2="100%"><stop offset="0%" stop-color="#87CEEB"/><stop offset="100%" stop-color="#E0F4FF"/></linearGradient>
<linearGradient id="bg-sunset" x1="0%" y1="0%" x2="0%" y2="100%"><stop offset="0%" stop-color="#FF4500"/><stop offset="40%" stop-color="#FF8C00"/><stop offset="100%" stop-color="#FFD700"/></linearGradient>
<linearGradient id="bg-forest" x1="0%" y1="0%" x2="0%" y2="100%"><stop offset="0%" stop-color="#2D5016"/><stop offset="100%" stop-color="#4A7A2E"/></linearGradient>
<linearGradient id="bg-grass" x1="0%" y1="0%" x2="0%" y2="100%"><stop offset="0%" stop-color="#87CEEB"/><stop offset="60%" stop-color="#87CEEB"/><stop offset="60%" stop-color="#7CCD7C"/><stop offset="100%" stop-color="#4A8B3F"/></linearGradient>
<linearGradient id="bg-beach" x1="0%" y1="0%" x2="0%" y2="100%"><stop offset="0%" stop-color="#87CEEB"/><stop offset="50%" stop-color="#87CEEB"/><stop offset="50%" stop-color="#F4D03F"/><stop offset="100%" stop-color="#E8C430"/></linearGradient>
<linearGradient id="bg-space" x1="0%" y1="0%" x2="0%" y2="100%"><stop offset="0%" stop-color="#0B0B2B"/><stop offset="100%" stop-color="#1A1A4A"/></linearGradient>
<linearGradient id="bg-underwater" x1="0%" y1="0%" x2="0%" y2="100%"><stop offset="0%" stop-color="#006994"/><stop offset="100%" stop-color="#003050"/></linearGradient>
<linearGradient id="bg-volcano" x1="0%" y1="0%" x2="0%" y2="100%"><stop offset="0%" stop-color="#1A0A00"/><stop offset="60%" stop-color="#4A1A00"/><stop offset="100%" stop-color="#FF4500"/></linearGradient>
<linearGradient id="bg-aurora-bg" x1="0%" y1="0%" x2="100%" y2="100%"><stop offset="0%" stop-color="#0B1A30"/><stop offset="33%" stop-color="#1A4A3A"/><stop offset="66%" stop-color="#2A1A5A"/><stop offset="100%" stop-color="#0B1A30"/></linearGradient>
<linearGradient id="bg-multiverse" x1="0%" y1="0%" x2="100%" y2="100%"><stop offset="0%" stop-color="#FF006E"/><stop offset="25%" stop-color="#8338EC"/><stop offset="50%" stop-color="#3A86FF"/><stop offset="75%" stop-color="#06D6A0"/><stop offset="100%" stop-color="#FFD166"/></linearGradient>
<radialGradient id="bg-black-hole" cx="50%" cy="50%" r="50%"><stop offset="0%" stop-color="#000000"/><stop offset="60%" stop-color="#1A0530"/><stop offset="100%" stop-color="#4A1A70"/></radialGradient>
<linearGradient id="bg-dimension" x1="0%" y1="0%" x2="100%" y2="100%"><stop offset="0%" stop-color="#FF0080"/><stop offset="50%" stop-color="#0000FF"/><stop offset="100%" stop-color="#00FF80"/></linearGradient>
<linearGradient id="bg-heaven" x1="0%" y1="0%" x2="0%" y2="100%"><stop offset="0%" stop-color="#FFFDE0"/><stop offset="100%" stop-color="#FFF8E1"/></linearGradient>
<linearGradient id="bg-mountains" x1="0%" y1="0%" x2="0%" y2="100%"><stop offset="0%" stop-color="#87CEEB"/><stop offset="100%" stop-color="#B0C4DE"/></linearGradient>
<linearGradient id="bg-city" x1="0%" y1="0%" x2="0%" y2="100%"><stop offset="0%" stop-color="#1A1A2E"/><stop offset="100%" stop-color="#16213E"/></linearGradient>
<clipPath id="body-clip"><circle cx="200" cy="200" r="88"/></clipPath>
</defs>
<rect width="400" height="400" fill="url(#bg-city)"/>
<rect x="20" y="260" width="41" height="140" fill="#0F3460" opacity="0.7"/>
<rect x="25" y="270" width="5" height="8" fill="#FFD700" opacity="0.8"/>
<rect x="35" y="270" width="5" height="8" fill="#FFD700" opacity="0.8"/>
<rect x="45" y="270" width="5" height="8" fill="#1A1A2E" opacity="0.8"/>
<rect x="55" y="270" width="5" height="8" fill="#FFD700" opacity="0.8"/>
<rect x="25" y="290" width="5" height="8" fill="#1A1A2E" opacity="0.8"/>
<rect x="35" y="290" width="5" height="8" fill="#FFD700" opacity="0.8"/>
<rect x="45" y="290" width="5" height="8" fill="#FFD700" opacity="0.8"/>
<rect x="55" y="290" width="5" height="8" fill="#1A1A2E" opacity="0.8"/>
<rect x="25" y="310" width="5" height="8" fill="#FFD700" opacity="0.8"/>
<rect x="35" y="310" width="5" height="8" fill="#1A1A2E" opacity="0.8"/>
<rect x="45" y="310" width="5" height="8" fill="#FFD700" opacity="0.8"/>
<rect x="55" y="310" width="5" height="8" fill="#FFD700" opacity="0.8"/>
<rect x="25" y="330" width="5" height="8" fill="#FFD700" opacity="0.8"/>
<rect x="35" y="330" width="5" height="8" fill="#FFD700" opacity="0.8"/>
<rect x="45" y="330" width="5" height="8" fill="#1A1A2E" opacity="0.8"/>
<rect x="55" y="330" width="5" height="8" fill="#FFD700" opacity="0.8"/>
<rect x="25" y="350" width="5" height="8" fill="#1A1A2E" opacity="0.8"/>
<rect x="35" y="350" width="5" height="8" fill="#FFD700" opacity="0.8"/>
<rect x="45" y="350" width="5" height="8" fill="#FFD700" opacity="0.8"/>
<rect x="55" y="350" width="5" height="8" fill="#1A1A2E" opacity="0.8"/>
<rect x="25" y="370" width="5" height="8" fill="#FFD700" opacity="0.8"/>
<rect x="35" y="370" width="5" height="8" fill="#1A1A2E" opacity="0.8"/>
<rect x="45" y="370" width="5" height="8" fill="#FFD700" opacity="0.8"/>
<rect x="55" y="370" width="5" height="8" fill="#FFD700" opacity="0.8"/>
<rect x="60" y="220" width="36" height="180" fill="#0F3460" opacity="0.7"/>
<rect x="65" y="230" width="5" height="8" fill="#FFD700" opacity="0.8"/>
<rect x="75" y="230" width="5" height="8" fill="#FFD700" opacity="0.8"/>
<rect x="85" y="230" width="5" height="8" fill="#1A1A2E" opacity="0.8"/>
<rect x="65" y="250" width="5" height="8" fill="#1A1A2E" opacity="0.8"/>
<rect x="75" y="250" width="5" height="8" fill="#FFD700" opacity="0.8"/>
<rect x="85" y="250" width="5" height="8" fill="#FFD700" opacity="0.8"/>
<rect x="65" y="270" width="5" height="8" fill="#FFD700" opacity="0.8"/>
<rect x="75" y="270" width="5" height="8" fill="#1A1A2E" opacity="0.8"/>
<rect x="85" y="270" width="5" height="8" fill="#FFD700" opacity="0.8"/>
<rect x="65" y="290" width="5" height="8" fill="#FFD700" opacity="0.8"/>
<rect x="75" y="290" width="5" height="8" fill="#FFD700" opacity="0.8"/>
<rect x="85" y="290" width="5" height="8" fill="#1A1A2E" opacity="0.8"/>
<rect x="65" y="310" width="5" height="8" fill="#1A1A2E" opacity="0.8"/>
<rect x="75" y="310" width="5" height="8" fill="#FFD700" opacity="0.8"/>
<rect x="85" y="310" width="5" height="8" fill="#FFD700" opacity="0.8"/>
<rect x="65" y="330" width="5" height="8" fill="#FFD700" opacity="0.8"/>
<rect x="75" y="330" width="5" height="8" fill="#1A1A2E" opacity="0.8"/>
<rect x="85" y="330" width="5" height="8" fill="#FFD700" opacity="0.8"/>
<rect x="65" y="350" width="5" height="8" fill="#FFD700" opacity="0.8"/>
<rect x="75" y="350" width="5" height="8" fill="#FFD700" opacity="0.8"/>
<rect x="85" y="350" width="5" height="8" fill="#1A1A2E" opacity="0.8"/>
<rect x="65" y="370" width="5" height="8" fill="#1A1A2E" opacity="0.8"/>
<rect x="75" y="370" width="5" height="8" fill="#FFD700" opacity="0.8"/>
<rect x="85" y="370" width="5" height="8" fill="#FFD700" opacity="0.8"/>
<rect x="100" y="280" width="31" height="120" fill="#0F3460" opacity="0.7"/>
<rect x="105" y="290" width="5" height="8" fill="#FFD700" opacity="0.8"/>
<rect x="115" y="290" width="5" height="8" fill="#1A1A2E" opacity="0.8"/>
<rect x="125" y="290" width="5" height="8" fill="#FFD700" opacity="0.8"/>
<rect x="105" y="310" width="5" height="8" fill="#FFD700" opacity="0.8"/>
<rect x="115" y="310" width="5" height="8" fill="#FFD700" opacity="0.8"/>
<rect x="125" y="310" width="5" height="8" fill="#1A1A2E" opacity="0.8"/>
<rect x="105" y="330" width="5" height="8" fill="#1A1A2E" opacity="0.8"/>
<rect x="115" y="330" width="5" height="8" fill="#FFD700" opacity="0.8"/>
<rect x="125" y="330" width="5" height="8" fill="#FFD700" opacity="0.8"/>
<rect x="105" y="350" width="5" height="8" fill="#FFD700" opacity="0.8"/>
<rect x="115" y="350" width="5" height="8" fill="#1A1A2E" opacity="0.8"/>
<rect x="125" y="350" width="5" height="8" fill="#FFD700" opacity="0.8"/>
<rect x="105" y="370" width="5" height="8" fill="#FFD700" opacity="0.8"/>
<rect x="115" y="370" width="5" height="8" fill="#FFD700" opacity="0.8"/>
<rect x="125" y="370" width="5" height="8" fill="#1A1A2E" opacity="0.8"/>
<rect x="140" y="200" width="41" height="200" fill="#0F3460" opacity="0.7"/>
<rect x="145" y="210" width="5" height="8" fill="#FFD700" opacity="0.8"/>
<rect x="155" y="210" width="5" height="8" fill="#FFD700" opacity="0.8"/>
<rect x="165" y="210" width="5" height="8" fill="#1A1A2E" opacity="0.8"/>
<rect x="175" y="210" width="5" height="8" fill="#FFD700" opacity="0.8"/>
<rect x="145" y="230" width="5" height="8" fill="#1A1A2E" opacity="0.8"/>
<rect x="155" y="230" width="5" height="8" fill="#FFD700" opacity="0.8"/>
<rect x="165" y="230" width="5" height="8" fill="#FFD700" opacity="0.8"/>
<rect x="175" y="230" width="5" height="8" fill="#1A1A2E" opacity="0.8"/>
<rect x="145" y="250" width="5" height="8" fill="#FFD700" opacity="0.8"/>
<rect x="155" y="250" width="5" height="8" fill="#1A1A2E" opacity="0.8"/>
<rect x="165" y="250" width="5" height="8" fill="#FFD700" opacity="0.8"/>
<rect x="175" y="250" width="5" height="8" fill="#FFD700" opacity="0.8"/>
<rect x="145" y="270" width="5" height="8" fill="#FFD700" opacity="0.8"/>
<rect x="155" y="270" width="5" height="8" fill="#FFD700" opacity="0.8"/>
<rect x="165" y="270" width="5" height="8" fill="#1A1A2E" opacity="0.8"/>
<rect x="175" y="270" width="5" height="8" fill="#FFD700" opacity="0.8"/>
<rect x="145" y="290" width="5" height="8" fill="#1A1A2E" opacity="0.8"/>
<rect x="155" y="290" width="5" height="8" fill="#FFD700" opacity="0.8"/>
<rect x="165" y="290" width="5" height="8" fill="#FFD700" opacity="0.8"/>
<rect x="175" y="290" width="5" height="8" fill="#1A1A2E" opacity="0.8"/>
<rect x="145" y="310" width="5" height="8" fill="#FFD700" opacity="0.8"/>
<rect x="155" y="310" width="5" height="8" fill="#1A1A2E" opacity="0.8"/>
<rect x="165" y="310" width="5" height="8" fill="#FFD700" opacity="0.8"/>
<rect x="175" y="310" width="5" height="8" fill="#FFD700" opacity="0.8"/>
<rect x="145" y="330" width="5" height="8" fill="#FFD700" opacity="0.8"/>
<rect x="155" y="330" width="5" height="8" fill="#FFD700" opacity="0.8"/>
<rect x="165" y="330" width="5" height="8" fill="#1A1A2E" opacity="0.8"/>
<rect x="175" y="330" width="5" height="8" fill="#FFD700" opacity="0.8"/>
<rect x="145" y="350" width="5" height="8" fill="#1A1A2E" opacity="0.8"/>
<rect x="155" y="350" width="5" height="8" fill="#FFD700" opacity="0.8"/>
<rect x="165" y="350" width="5" height="8" fill="#FFD700" opacity="0.8"/>
<rect x="175" y="350" width="5" height="8" fill="#1A1A2E" opacity="0.8"/>
<rect x="145" y="370" width="5" height="8" fill="#FFD700" opacity="0.8"/>
<rect x="155" y="370" width="5" height="8" fill="#1A1A2E" opacity="0.8"/>
<rect x="165" y="370" width="5" height="8" fill="#FFD700" opacity="0.8"/>
<rect x="175" y="370" width="5" height="8" fill="#FFD700" opacity="0.8"/>
<rect x="180" y="250" width="36" height="150" fill="#0F3460" opacity="0.7"/>
<rect x="185" y="260" width="5" height="8" fill="#FFD700" opacity="0.8"/>
<rect x="195" y="260" width="5" height="8" fill="#FFD700" opacity="0.8"/>
<rect x="205" y="260" width="5" height="8" fill="#1A1A2E" opacity="0.8"/>
<rect x="185" y="280" width="5" height="8" fill="#1A1A2E" opacity="0.8"/>
<rect x="195" y="280" width="5" height="8" fill="#FFD700" opacity="0.8"/>
<rect x="205" y="280" width="5" height="8" fill="#FFD700" opacity="0.8"/>
<rect x="185" y="300" width="5" height="8" fill="#FFD700" opacity="0.8"/>
<rect x="195" y="300" width="5" height="8" fill="#1A1A2E" opacity="0.8"/>
<rect x="205" y="300" width="5" height="8" fill="#FFD700" opacity="0.8"/>
<rect x="185" y="320" width="5" height="8" fill="#FFD700" opacity="0.8"/>
<rect x="195" y="320" width="5" height="8" fill="#FFD700" opacity="0.8"/>
<rect x="205" y="320" width="5" height="8" fill="#1A1A2E" opacity="0.8"/>
<rect x="185" y="340" width="5" height="8" fill="#1A1A2E" opacity="0.8"/>
<rect x="195" y="340" width="5" height="8" fill="#FFD700" opacity="0.8"/>
<rect x="205" y="340" width="5" height="8" fill="#FFD700" opacity="0.8"/>
<rect x="185" y="360" width="5" height="8" fill="#FFD700" opacity="0.8"/>
<rect x="195" y="360" width="5" height="8" fill="#1A1A2E" opacity="0.8"/>
<rect x="205" y="360" width="5" height="8" fill="#FFD700" opacity="0.8"/>
<rect x="185" y="380" width="5" height="8" fill="#FFD700" opacity="0.8"/>
<rect x="195" y="380" width="5" height="8" fill="#FFD700" opacity="0.8"/>
<rect x="205" y="380" width="5" height="8" fill="#1A1A2E" opacity="0.8"/>
<rect x="220" y="210" width="31" height="190" fill="#0F3460" opacity="0.7"/>
<rect x="225" y="220" width="5" height="8" fill="#FFD700" opacity="0.8"/>
<rect x="235" y="220" width="5" height="8" fill="#FFD700" opacity="0.8"/>
<rect x="245" y="220" width="5" height="8" fill="#1A1A2E" opacity="0.8"/>
<rect x="225" y="240" width="5" height="8" fill="#1A1A2E" opacity="0.8"/>
<rect x="235" y="240" width="5" height="8" fill="#FFD700" opacity="0.8"/>
<rect x="245" y="240" width="5" height="8" fill="#FFD700" opacity="0.8"/>
<rect x="225" y="260" width="5" height="8" fill="#FFD700" opacity="0.8"/>
<rect x="235" y="260" width="5" height="8" fill="#1A1A2E" opacity="0.8"/>
<rect x="245" y="260" width="5" height="8" fill="#FFD700" opacity="0.8"/>
<rect x="225" y="280" width="5" height="8" fill="#FFD700" opacity="0.8"/>
<rect x="235" y="280" width="5" height="8" fill="#FFD700" opacity="0.8"/>
<rect x="245" y="280" width="5" height="8" fill="#1A1A2E" opacity="0.8"/>
<rect x="225" y="300" width="5" height="8" fill="#1A1A2E" opacity="0.8"/>
<rect x="235" y="300" width="5" height="8" fill="#FFD700" opacity="0.8"/>
<rect x="245" y="300" width="5" height="8" fill="#FFD700" opacity="0.8"/>
<rect x="225" y="320" width="5" height="8" fill="#FFD700" opacity="0.8"/>
<rect x="235" y="320" width="5" height="8" fill="#1A1A2E" opacity="0.8"/>
<rect x="245" y="320" width="5" height="8" fill="#FFD700" opacity="0.8"/>
<rect x="225" y="340" width="5" height="8" fill="#FFD700" opacity="0.8"/>
<rect x="235" y="340" width="5" height="8" fill="#FFD700" opacity="0.8"/>
<rect x="245" y="340" width="5" height="8" fill="#1A1A2E" opacity="0.8"/>
<rect x="225" y="360" width="5" height="8" fill="#1A1A2E" opacity="0.8"/>
<rect x="235" y="360" width="5" height="8" fill="#FFD700" opacity="0.8"/>
<rect x="245" y="360" width="5" height="8" fill="#FFD700" opacity="0.8"/>
<rect x="225" y="380" width="5" height="8" fill="#FFD700" opacity="0.8"/>
<rect x="235" y="380" width="5" height="8" fill="#1A1A2E" opacity="0.8"/>
<rect x="245" y="380" width="5" height="8" fill="#FFD700" opacity="0.8"/>
<rect x="260" y="270" width="41" height="130" fill="#0F3460" opacity="0.7"/>
<rect x="265" y="280" width="5" height="8" fill="#FFD700" opacity="0.8"/>
<rect x="275" y="280" width="5" height="8" fill="#1A1A2E" opacity="0.8"/>
<rect x="285" y="280" width="5" height="8" fill="#FFD700" opacity="0.8"/>
<rect x="295" y="280" width="5" height="8" fill="#FFD700" opacity="0.8"/>
<rect x="265" y="300" width="5" height="8" fill="#FFD700" opacity="0.8"/>
<rect x="275" y="300" width="5" height="8" fill="#FFD700" opacity="0.8"/>
<rect x="285" y="300" width="5" height="8" fill="#1A1A2E" opacity="0.8"/>
<rect x="295" y="300" width="5" height="8" fill="#FFD700" opacity="0.8"/>
<rect x="265" y="320" width="5" height="8" fill="#1A1A2E" opacity="0.8"/>
<rect x="275" y="320" width="5" height="8" fill="#FFD700" opacity="0.8"/>
<rect x="285" y="320" width="5" height="8" fill="#FFD700" opacity="0.8"/>
<rect x="295" y="320" width="5" height="8" fill="#1A1A2E" opacity="0.8"/>
<rect x="265" y="340" width="5" height="8" fill="#FFD700" opacity="0.8"/>
<rect x="275" y="340" width="5" height="8" fill="#1A1A2E" opacity="0.8"/>
<rect x="285" y="340" width="5" height="8" fill="#FFD700" opacity="0.8"/>
<rect x="295" y="340" width="5" height="8" fill="#FFD700" opacity="0.8"/>
<rect x="265" y="360" width="5" height="8" fill="#FFD700" opacity="0.8"/>
<rect x="275" y="360" width="5" height="8" fill="#FFD700" opacity="0.8"/>
<rect x="285" y="360" width="5" height="8" fill="#1A1A2E" opacity="0.8"/>
<rect x="295" y="360" width="5" height="8" fill="#FFD700" opacity="0.8"/>
<rect x="265" y="380" width="5" height="8" fill="#1A1A2E" opacity="0.8"/>
<rect x="275" y="380" width="5" height="8" fill="#FFD700" opacity="0.8"/>
<rect x="285" y="380" width="5" height="8" fill="#FFD700" opacity="0.8"/>
<rect x="295" y="380" width="5" height="8" fill="#1A1A2E" opacity="0.8"/>
<rect x="300" y="230" width="36" height="170" fill="#0F3460" opacity="0.7"/>
<rect x="305" y="240" width="5" height="8" fill="#FFD700" opacity="0.8"/>
<rect x="315" y="240" width="5" height="8" fill="#1A1A2E" opacity="0.8"/>
<rect x="325" y="240" width="5" height="8" fill="#FFD700" opacity="0.8"/>
<rect x="305" y="260" width="5" height="8" fill="#FFD700" opacity="0.8"/>
<rect x="315" y="260" width="5" height="8" fill="#FFD700" opacity="0.8"/>
<rect x="325" y="260" width="5" height="8" fill="#1A1A2E" opacity="0.8"/>
<rect x="305" y="280" width="5" height="8" fill="#1A1A2E" opacity="0.8"/>
<rect x="315" y="280" width="5" height="8" fill="#FFD700" opacity="0.8"/>
<rect x="325" y="280" width="5" height="8" fill="#FFD700" opacity="0.8"/>
<rect x="305" y="300" width="5" height="8" fill="#FFD700" opacity="0.8"/>
<rect x="315" y="300" width="5" height="8" fill="#1A1A2E" opacity="0.8"/>
<rect x="325" y="300" width="5" height="8" fill="#FFD700" opacity="0.8"/>
<rect x="305" y="320" width="5" height="8" fill="#FFD700" opacity="0.8"/>
<rect x="315" y="320" width="5" height="8" fill="#FFD700" opacity="0.8"/>
<rect x="325" y="320" width="5" height="8" fill="#1A1A2E" opacity="0.8"/>
<rect x="305" y="340" width="5" height="8" fill="#1A1A2E" opacity="0.8"/>
<rect x="315" y="340" width="5" height="8" fill="#FFD700" opacity="0.8"/>
<rect x="325" y="340" width="5" height="8" fill="#FFD700" opacity="0.8"/>
<rect x="305" y="360" width="5" height="8" fill="#FFD700" opacity="0.8"/>
<rect x="315" y="360" width="5" height="8" fill="#1A1A2E" opacity="0.8"/>
<rect x="325" y="360" width="5" height="8" fill="#FFD700" opacity="0.8"/>
<rect x="305" y="380" width="5" height="8" fill="#FFD700" opacity="0.8"/>
<rect x="315" y="380" width="5" height="8" fill="#FFD700" opacity="0.8"/>
<rect x="325" y="380" width="5" height="8" fill="#1A1A2E" opacity="0.8"/>
<rect x="340" y="240" width="31" height="160" fill="#0F3460" opacity="0.7"/>
<rect x="345" y="250" width="5" height="8" fill="#FFD700" opacity="0.8"/>
<rect x="355" y="250" width="5" height="8" fill="#FFD700" opacity="0.8"/>
<rect x="365" y="250" width="5" height="8" fill="#1A1A2E" opacity="0.8"/>
<rect x="345" y="270" width="5" height="8" fill="#1A1A2E" opacity="0.8"/>
<rect x="355" y="270" width="5" height="8" fill="#FFD700" opacity="0.8"/>
<rect x="365" y="270" width="5" height="8" fill="#FFD700" opacity="0.8"/>
<rect x="345" y="290" width="5" height="8" fill="#FFD700" opacity="0.8"/>
<rect x="355" y="290" width="5" height="8" fill="#1A1A2E" opacity="0.8"/>
<rect x="365" y="290" width="5" height="8" fill="#FFD700" opacity="0.8"/>
<rect x="345" y="310" width="5" height="8" fill="#FFD700" opacity="0.8"/>
<rect x="355" y="310" width="5" height="8" fill="#FFD700" opacity="0.8"/>
<rect x="365" y="310" width="5" height="8" fill="#1A1A2E" opacity="0.8"/>
<rect x="345" y="330" width="5" height="8" fill="#1A1A2E" opacity="0.8"/>
<rect x="355" y="330" width="5" height="8" fill="#FFD700" opacity="0.8"/>
<rect x="365" y="330" width="5" height="8" fill="#FFD700" opacity="0.8"/>
<rect x="345" y="350" width="5" height="8" fill="#FFD700" opacity="0.8"/>
<rect x="355" y="350" width="5" height="8" fill="#1A1A2E" opacity="0.8"/>
<rect x="365" y="350" width="5" height="8" fill="#FFD700" opacity="0.8"/>
<rect x="345" y="370" width="5" height="8" fill="#FFD700" opacity="0.8"/>
<rect x="355" y="370" width="5" height="8" fill="#FFD700" opacity="0.8"/>
<rect x="365" y="370" width="5" height="8" fill="#1A1A2E" opacity="0.8"/>
<rect x="370" y="260" width="31" height="140" fill="#0F3460" opacity="0.7"/>
<rect x="375" y="270" width="5" height="8" fill="#1A1A2E" opacity="0.8"/>
<rect x="385" y="270" width="5" height="8" fill="#FFD700" opacity="0.8"/>
<rect x="395" y="270" width="5" height="8" fill="#FFD700" opacity="0.8"/>
<rect x="375" y="290" width="5" height="8" fill="#FFD700" opacity="0.8"/>
<rect x="385" y="290" width="5" height="8" fill="#1A1A2E" opacity="0.8"/>
<rect x="395" y="290" width="5" height="8" fill="#FFD700" opacity="0.8"/>
<rect x="375" y="310" width="5" height="8" fill="#FFD700" opacity="0.8"/>
<rect x="385" y="310" width="5" height="8" fill="#FFD700" opacity="0.8"/>
<rect x="395" y="310" width="5" height="8" fill="#1A1A2E" opacity="0.8"/>
<rect x="375" y="330" width="5" height="8" fill="#1A1A2E" opacity="0.8"/>
<rect x="385" y="330" width="5" height="8" fill="#FFD700" opacity="0.8"/>
<rect x="395" y="330" width="5" height="8" fill="#FFD700" opacity="0.8"/>
<rect x="375" y="350" width="5" height="8" fill="#FFD700" opacity="0.8"/>
<rect x="385" y="350" width="5" height="8" fill="#1A1A2E" opacity="0.8"/>
<rect x="395" y="350" width="5" height="8" fill="#FFD700" opacity="0.8"/>
<rect x="375" y="370" width="5" height="8" fill="#FFD700" opacity="0.8"/>
<rect x="385" y="370" width="5" height="8" fill="#FFD700" opacity="0.8"/>
<rect x="395" y="370" width="5" height="8" fill="#1A1A2E" opacity="0.8"/>
<ellipse cx="200" cy="200" rx="141" ry="61" fill="#C8B88A" transform="rotate(0.0 200 200)" opacity="0.75"/>
<ellipse cx="200" cy="200" rx="148" ry="57" fill="#C8B88A" transform="rotate(22.5 200 200)" opacity="0.75"/>
<ellipse cx="200" cy="200" rx="135" ry="68" fill="#C8B88A" transform="rotate(45.0 200 200)" opacity="0.75"/>
<ellipse cx="200" cy="200" rx="142" ry="64" fill="#C8B88A" transform="rotate(67.5 200 200)" opacity="0.75"/>
<ellipse cx="200" cy="200" rx="149" ry="60" fill="#C8B88A" transform="rotate(90.0 200 200)" opacity="0.75"/>
<ellipse cx="200" cy="200" rx="136" ry="56" fill="#C8B88A" transform="rotate(112.5 200 200)" opacity="0.75"/>
<ellipse cx="200" cy="200" rx="143" ry="67" fill="#C8B88A" transform="rotate(135.0 200 200)" opacity="0.75"/>
<ellipse cx="200" cy="200" rx="130" ry="63" fill="#C8B88A" transform="rotate(157.5 200 200)" opacity="0.75"/>
<ellipse cx="200" cy="200" rx="137" ry="59" fill="#C8B88A" transform="rotate(180.0 200 200)" opacity="0.75"/>
<ellipse cx="200" cy="200" rx="144" ry="55" fill="#C8B88A" transform="rotate(202.5 200 200)" opacity="0.75"/>
<ellipse cx="200" cy="200" rx="131" ry="66" fill="#C8B88A" transform="rotate(225.0 200 200)" opacity="0.75"/>
<ellipse cx="200" cy="200" rx="138" ry="62" fill="#C8B88A" transform="rotate(247.5 200 200)" opacity="0.75"/>
<ellipse cx="200" cy="200" rx="145" ry="58" fill="#C8B88A" transform="rotate(270.0 200 200)" opacity="0.75"/>
<ellipse cx="200" cy="200" rx="132" ry="69" fill="#C8B88A" transform="rotate(292.5 200 200)" opacity="0.75"/>
<ellipse cx="200" cy="200" rx="139" ry="65" fill="#C8B88A" transform="rotate(315.0 200 200)" opacity="0.75"/>
<ellipse cx="200" cy="200" rx="146" ry="61" fill="#C8B88A" transform="rotate(337.5 200 200)" opacity="0.75"/>
<circle cx="200" cy="200" r="110" fill="#A09068" opacity="0.5"/>
<circle cx="132" cy="132" r="22" fill="#F5F5DC"/>
<circle cx="132" cy="132" r="12" fill="#FFFFF0" opacity="0.5"/>
<circle cx="268" cy="132" r="22" fill="#F5F5DC"/>
<circle cx="268" cy="132" r="12" fill="#FFFFF0" opacity="0.5"/>
<circle cx="200" cy="200" r="90" fill="#F5F5DC" filter="url(#shadow)"/>
<ellipse cx="200" cy="230" rx="48" ry="38" fill="#FFFFF0" opacity="0.5"/>
<g clip-path="url(#body-clip)" opacity="0.3">
<circle cx="143" cy="227" r="12" fill="#D4D4B8"/>
<circle cx="146" cy="194" r="5" fill="#D4D4B8"/>
<circle cx="149" cy="161" r="6" fill="#D4D4B8"/>
<circle cx="152" cy="248" r="7" fill="#D4D4B8"/>
<circle cx="155" cy="215" r="8" fill="#D4D4B8"/>
<circle cx="158" cy="182" r="9" fill="#D4D4B8"/>
<circle cx="161" cy="149" r="10" fill="#D4D4B8"/>
<circle cx="164" cy="236" r="11" fill="#D4D4B8"/>
<circle cx="167" cy="203" r="12" fill="#D4D4B8"/>
<circle cx="170" cy="170" r="5" fill="#D4D4B8"/>
<circle cx="173" cy="257" r="6" fill="#D4D4B8"/>
<circle cx="176" cy="224" r="7" fill="#D4D4B8"/>
</g>
<ellipse cx="170" cy="188" rx="12" ry="7" fill="#FFD700"/>
<ellipse cx="170" cy="188" r="4" fill="#000"/>
<line x1="156" y1="180" x2="184" y2="180" stroke="#000" stroke-width="2"/>
<ellipse cx="230" cy="188" rx="12" ry="7" fill="#FFD700"/>
<ellipse cx="230" cy="188" r="4" fill="#000"/>
<line x1="216" y1="180" x2="244" y2="180" stroke="#000" stroke-width="2"/>
<path d="M188 220 Q200 212 212 220 L200 232 Z" fill="#3E2723"/>
<path d="M182 240 Q200 248 218 238" stroke="#3E2723" stroke-width="2" fill="none" stroke-linecap="round"/>
<line x1="170" y1="215" x2="130" y2="212" stroke="#3E2723" stroke-width="1" opacity="0.3"/>
<line x1="170" y1="225" x2="130" y2="222" stroke="#3E2723" stroke-width="1" opacity="0.3"/>
<line x1="230" y1="215" x2="270" y2="218" stroke="#3E2723" stroke-width="1" opacity="0.3"/>
<line x1="230" y1="225" x2="270" y2="228" stroke="#3E2723" stroke-width="1" opacity="0.3"/>
<rect x="154" y="176" width="28" height="18" rx="4" fill="#111" opacity="0.85"/>
<rect x="218" y="176" width="28" height="18" rx="4" fill="#111" opacity="0.85"/>
<line x1="182" y1="186" x2="218" y2="186" stroke="#333" stroke-width="2"/>
<line x1="154" y1="182" x2="140" y2="176" stroke="#333" stroke-width="2"/>
<line x1="246" y1="182" x2="260" y2="176" stroke="#333" stroke-width="2"/>
<polygon points="349.0,229.0 349.9,231.7 352.8,231.8 350.5,233.5 351.4,236.2 349.0,234.6 346.6,236.2 347.5,233.5 345.2,231.8 348.1,231.7" fill="#FFD700"/>
<polygon points="298.0,61.0 299.2,64.4 302.8,64.5 299.9,66.6 300.9,70.0 298.0,68.0 295.1,70.0 296.1,66.6 293.2,64.5 296.8,64.4" fill="#FFD700"/>
<polygon points="247.0,293.0 248.4,297.1 252.7,297.1 249.3,299.7 250.5,303.9 247.0,301.4 243.5,303.9 244.7,299.7 241.3,297.1 245.6,297.1" fill="#FFD700"/>
<polygon points="196.0,125.0 197.6,129.7 202.7,129.8 198.7,132.9 200.1,137.7 196.0,134.8 191.9,137.7 193.3,132.9 189.3,129.8 194.4,129.7" fill="#FFD700"/>
<polygon points="145.0,357.0 146.9,362.4 152.6,362.5 148.0,366.0 149.7,371.5 145.0,368.2 140.3,371.5 142.0,366.0 137.4,362.5 143.1,362.4" fill="#FFD700"/>
<polygon points="94.0,194.0 94.9,196.7 97.8,196.8 95.5,198.5 96.4,201.2 94.0,199.6 91.6,201.2 92.5,198.5 90.2,196.8 93.1,196.7" fill="#FFD700"/>
<polygon points="43.0,26.0 44.2,29.4 47.8,29.5 44.9,31.6 45.9,35.0 43.0,33.0 40.1,35.0 41.1,31.6 38.2,29.5 41.8,29.4" fill="#FFD700"/>
<polygon points="392.0,258.0 393.4,262.1 397.7,262.1 394.3,264.7 395.5,268.9 392.0,266.4 388.5,268.9 389.7,264.7 386.3,262.1 390.6,262.1" fill="#FFD700"/>
<polygon points="341.0,90.0 342.6,94.7 347.7,94.8 343.7,97.9 345.1,102.7 341.0,99.8 336.9,102.7 338.3,97.9 334.3,94.8 339.4,94.7" fill="#FFD700"/>
<polygon points="290.0,322.0 291.9,327.4 297.6,327.5 293.0,331.0 294.7,336.5 290.0,333.2 285.3,336.5 287.0,331.0 282.4,327.5 288.1,327.4" fill="#FFD700"/>
</svg>