<svg width="400" height="400" viewBox="0 0 400 400" xmlns="http://www.w3.org/2000/svg">
<defs>
<filter id="shadow" x="-20%" y="-20%" width="140%" height="140%"><feDropShadow dx="2" dy="4" stdDeviation="3" flood-opacity="0.3"/></filter>
<filter id="glow"><feGaussianBlur in="SourceGraphic" stdDeviation="8" result="blur"/><feMerge><feMergeNode in="blur"/><feMergeNode in="SourceGraphic"/></feMerge></filter>
<filter id="glow-strong"><feGaussianBlur in="SourceGraphic" stdDeviation="15" result="blur"/><feMerge><feMergeNode in="blur"/><feMergeNode in="blur"/><feMergeNode in="SourceGraphic"/></feMerge></filter>
<linearGradient id="bg-sky" x1="0%" y1="0%" x2="0%" y2="100%"><stop offset="0%" stop-color="#87CEEB"/><stop offset="100%" stop-color="#E0F4FF"/></linearGradient>
<linearGradient id="bg-sunset" x1="0%" y1="0%" x2="0%" y2="100%"><stop offset="0%" stop-color="#FF4500"/><stop offset="40%" stop-color="#FF8C00"/><stop offset="100%" stop-color="#FFD700"/></linearGradient>
<linearGradient id="bg-forest" x1="0%" y1="0%" x2="0%" y2="100%"><stop offset="0%" stop-color="#2D5016"/><stop offset="100%" stop-color="#4A7A2E"/></linearGradient>
<linearGradient id="bg-grass" x1="0%" y1="0%" x2="0%" y2="100%"><stop offset="0%" stop-color="#87CEEB"/><stop offset="60%" stop-color="#87CEEB"/><stop offset="60%" stop-color="#7CCD7C"/><stop offset="100%" stop-color="#4A8B3F"/></linearGradient>
<linearGradient id="bg-beach" x1="0%" y1="0%" x2="0%" y2="100%"><stop offset="0%" stop-color="#87CEEB"/><stop offset="50%" stop-color="#87CEEB"/><stop offset="50%" stop-color="#F4D03F"/><stop offset="100%" stop-color="#E8C430"/></linearGradient>
<linearGradient id="bg-space" x1="0%" y1="0%" x2="0%" y2="100%"><stop offset="0%" stop-color="#0B0B2B"/><stop offset="100%" stop-color="#1A1A4A"/></linearGradient>
<linearGradient id="bg-underwater" x1="0%" y1="0%" x2="0%" y2="100%"><stop offset="0%" stop-color="#006994"/><stop offset="100%" stop-color="#003050"/></linearGradient>
<linearGradient id="bg-volcano" x1="0%" y1="0%" x2="0%" y2="100%"><stop offset="0%" stop-color="#1A0A00"/><stop offset="60%" stop-color="#4A1A00"/><stop offset="100%" stop-color="#FF4500"/></linearGradient>
<linearGradient id="bg-aurora-bg" x1="0%" y1="0%" x2="100%" y2="100%"><stop offset="0%" stop-color="#0B1A30"/><stop offset="33%" stop-color="#1A4A3A"/><stop offset="66%" stop-color="#2A1A5A"/><stop offset="100%" stop-color="#0B1A30"/></linearGradient>
<linearGradient id="bg-multiverse" x1="0%" y1="0%" x2="100%" y2="100%"><stop offset="0%" stop-color="#FF006E"/><stop offset="25%" stop-color="#8338EC"/><stop offset="50%" stop-color="#3A86FF"/><stop offset="75%" stop-color="#06D6A0"/><stop offset="100%" stop-color="#FFD166"/></linearGradient>
<radialGradient id="bg-black-hole" cx="50%" cy="50%" r="50%"><stop offset="0%" stop-color="#000000"/><stop offset="60%" stop-color="#1A0530"/><stop offset="100%" stop-color="#4A1A70"/></radialGradient>
<linearGradient id="bg-dimension" x1="0%" y1="0%" x2="100%" y2="100%"><stop offset="0%" stop-color="#FF0080"/><stop offset="50%" stop-color="#0000FF"/><stop offset="100%" stop-color="#00FF80"/></linearGradient>
<linearGradient id="bg-heaven" x1="0%" y1="0%" x2="0%" y2="100%"><stop offset="0%" stop-color="#FFFDE0"/><stop offset="100%" stop-color="#FFF8E1"/></linearGradient>
<linearGradient id="bg-mountains" x1="0%" y1="0%" x2="0%" y2="100%"><stop offset="0%" stop-color="#87CEEB"/><stop offset="100%" stop-color="#B0C4DE"/></linearGradient>
<linearGradient id="bg-city" x1="0%" y1="0%" x2="0%" y2="100%"><stop offset="0%" stop-color="#1A1A2E"/><stop offset="100%" stop-color="#16213E"/></linearGradient>
<clipPath id="body-clip"><circle cx="200" cy="200" r="88"/></clipPath>
</defs>
<rect width="400" height="400" fill="url(#bg-beach)"/>
<path d="M0 190 Q100 175 200 190 T400 190" stroke="#5DADE2" stroke-width="2" fill="none" opacity="0.5"/>
<ellipse cx="200" cy="200" rx="136" ry="66" fill="#A0784C" transform="rotate(0.0 200 200)" opacity="0.75"/>
<ellipse cx="200" cy="200" rx="143" ry="62" fill="#A0784C" transform="rotate(22.5 200 200)" opacity="0.75"/>
<ellipse cx="200" cy="200" rx="130" ry="58" fill="#A0784C" transform="rotate(45.0 200 200)" opacity="0.75"/>
<ellipse cx="200" cy="200" rx="137" ry="69" fill="#A0784C" transform="rotate(67.5 200 200)" opacity="0.75"/>
<ellipse cx="200" cy="200" rx="144" ry="65" fill="#A0784C" transform="rotate(90.0 200 200)" opacity="0.75"/>
<ellipse cx="200" cy="200" rx="131" ry="61" fill="#A0784C" transform="rotate(112.5 200 200)" opacity="0.75"/>
<ellipse cx="200" cy="200" rx="138" ry="57" fill="#A0784C" transform="rotate(135.0 200 200)" opacity="0.75"/>
<ellipse cx="200" cy="200" rx="145" ry="68" fill="#A0784C" transform="rotate(157.5 200 200)" opacity="0.75"/>
<ellipse cx="200" cy="200" rx="132" ry="64" fill="#A0784C" transform="rotate(180.0 200 200)" opacity="0.75"/>
<ellipse cx="200" cy="200" rx="139" ry="60" fill="#A0784C" transform="rotate(202.5 200 200)" opacity="0.75"/>
<ellipse cx="200" cy="200" rx="146" ry="56" fill="#A0784C" transform="rotate(225.0 200 200)" opacity="0.75"/>
<ellipse cx="200" cy="200" rx="133" ry="67" fill="#A0784C" transform="rotate(247.5 200 200)" opacity="0.75"/>
<ellipse cx="200" cy="200" rx="140" ry="63" fill="#A0784C" transform="rotate(270.0 200 200)" opacity="0.75"/>
<ellipse cx="200" cy="200" rx="147" ry="59" fill="#A0784C" transform="rotate(292.5 200 200)" opacity="0.75"/>
<ellipse cx="200" cy="200" rx="134" ry="55" fill="#A0784C" transform="rotate(315.0 200 200)" opacity="0.75"/>
<ellipse cx="200" cy="200" rx="141" ry="66" fill="#A0784C" transform="rotate(337.5 200 200)" opacity="0.75"/>
<circle cx="200" cy="200" r="110" fill="#7A5A3A" opacity="0.5"/>
<circle cx="132" cy="132" r="22" fill="#D2B48C"/>
<circle cx="132" cy="132" r="12" fill="#F4E4C1" opacity="0.5"/>
<circle cx="268" cy="132" r="22" fill="#D2B48C"/>
<circle cx="268" cy="132" r="12" fill="#F4E4C1" opacity="0.5"/>
<circle cx="200" cy="200" r="90" fill="#D2B48C" filter="url(#shadow)"/>
<ellipse cx="200" cy="230" rx="48" ry="38" fill="#F4E4C1" opacity="0.5"/>
<g clip-path="url(#body-clip)" opacity="0.3">
<polygon points="184.0,222.0 185.8,225.6 189.7,226.1 186.9,228.9 187.5,232.9 184.0,231.0 180.5,232.9 181.1,228.9 178.3,226.1 182.2,225.6" fill="#B8956E"/>
<polygon points="218.0,200.0 219.8,203.6 223.7,204.1 220.9,206.9 221.5,210.9 218.0,209.0 214.5,210.9 215.1,206.9 212.3,204.1 216.2,203.6" fill="#B8956E"/>
<polygon points="152.0,178.0 153.8,181.6 157.7,182.1 154.9,184.9 155.5,188.9 152.0,187.0 148.5,188.9 149.1,184.9 146.3,182.1 150.2,181.6" fill="#B8956E"/>
<polygon points="186.0,156.0 187.8,159.6 191.7,160.1 188.9,162.9 189.5,166.9 186.0,165.0 182.5,166.9 183.1,162.9 180.3,160.1 184.2,159.6" fill="#B8956E"/>
<polygon points="220.0,234.0 221.8,237.6 225.7,238.1 222.9,240.9 223.5,244.9 220.0,243.0 216.5,244.9 217.1,240.9 214.3,238.1 218.2,237.6" fill="#B8956E"/>
<polygon points="154.0,212.0 155.8,215.6 159.7,216.1 156.9,218.9 157.5,222.9 154.0,221.0 150.5,222.9 151.1,218.9 148.3,216.1 152.2,215.6" fill="#B8956E"/>
<polygon points="188.0,190.0 189.8,193.6 193.7,194.1 190.9,196.9 191.5,200.9 188.0,199.0 184.5,200.9 185.1,196.9 182.3,194.1 186.2,193.6" fill="#B8956E"/>
<polygon points="222.0,168.0 223.8,171.6 227.7,172.1 224.9,174.9 225.5,178.9 222.0,177.0 218.5,178.9 219.1,174.9 216.3,172.1 220.2,171.6" fill="#B8956E"/>
</g>
<ellipse cx="170" cy="188" rx="12" ry="10" fill="#FFD700"/>
<circle cx="170" cy="188" r="4" fill="#000"/>
<circle cx="172" cy="186" r="2" fill="white" opacity="0.7"/>
<ellipse cx="230" cy="188" rx="12" ry="10" fill="#FFD700"/>
<circle cx="230" cy="188" r="4" fill="#000"/>
<circle cx="232" cy="186" r="2" fill="white" opacity="0.7"/>
<circle cx="170" cy="188" r="14" fill="none" stroke="#000" stroke-width="1" opacity="0.3"/>
<circle cx="230" cy="188" r="14" fill="none" stroke="#000" stroke-width="1" opacity="0.3"/>
<path d="M188 220 Q200 212 212 220 L200 232 Z" fill="#3E2723"/>
<line x1="185" y1="238" x2="215" y2="238" stroke="#3E2723" stroke-width="2" stroke-linecap="round"/>
<line x1="170" y1="215" x2="130" y2="212" stroke="#3E2723" stroke-width="1" opacity="0.3"/>
<line x1="170" y1="225" x2="130" y2="222" stroke="#3E2723" stroke-width="1" opacity="0.3"/>
<line x1="230" y1="215" x2="270" y2="218" stroke="#3E2723" stroke-width="1" opacity="0.3"/>
<line x1="230" y1="225" x2="270" y2="228" stroke="#3E2723" stroke-width="1" opacity="0.3"/>
<path d="M135 180 Q135 115 200 110 Q265 115 265 180" stroke="#333" stroke-width="5" fill="none"/>
<ellipse cx="132" cy="185" rx="12" ry="16" fill="#444"/>
<ellipse cx="268" cy="185" rx="12" ry="16" fill="#444"/>
<ellipse cx="200" cy="300" rx="90" ry="20" fill="#000" opacity="0.2"/>
</svg>