<svg width="400" height="400" viewBox="0 0 400 400" xmlns="http://www.w3.org/2000/svg">
<defs>
<filter id="shadow" x="-20%" y="-20%" width="140%" height="140%"><feDropShadow dx="2" dy="4" stdDeviation="3" flood-opacity="0.3"/></filter>
<filter id="glow"><feGaussianBlur in="SourceGraphic" stdDeviation="8" result="blur"/><feMerge><feMergeNode in="blur"/><feMergeNode in="SourceGraphic"/></feMerge></filter>
<filter id="glow-strong"><feGaussianBlur in="SourceGraphic" stdDeviation="15" result="blur"/><feMerge><feMergeNode in="blur"/><feMergeNode in="blur"/><feMergeNode in="SourceGraphic"/></feMerge></filter>
<linearGradient id="bg-sky" x1="0%" y1="0%" x2="0%" y2="100%"><stop offset="0%" stop-color="#87CEEB"/><stop offset="100%" stop-color="#E0F4FF"/></linearGradient>
<linearGradient id="bg-sunset" x1="0%" y1="0%" x2="0%" y2="100%"><stop offset="0%" stop-color="#FF4500"/><stop offset="40%" stop-color="#FF8C00"/><stop offset="100%" stop-color="#FFD700"/></linearGradient>
<linearGradient id="bg-forest" x1="0%" y1="0%" x2="0%" y2="100%"><stop offset="0%" stop-color="#2D5016"/><stop offset="100%" stop-color="#4A7A2E"/></linearGradient>
<linearGradient id="bg-grass" x1="0%" y1="0%" x2="0%" y2="100%"><stop offset="0%" stop-color="#87CEEB"/><stop offset="60%" stop-color="#87CEEB"/><stop offset="60%" stop-color="#7CCD7C"/><stop offset="100%" stop-color="#4A8B3F"/></linearGradient>
<linearGradient id="bg-beach" x1="0%" y1="0%" x2="0%" y2="100%"><stop offset="0%" stop-color="#87CEEB"/><stop offset="50%" stop-color="#87CEEB"/><stop offset="50%" stop-color="#F4D03F"/><stop offset="100%" stop-color="#E8C430"/></linearGradient>
<linearGradient id="bg-space" x1="0%" y1="0%" x2="0%" y2="100%"><stop offset="0%" stop-color="#0B0B2B"/><stop offset="100%" stop-color="#1A1A4A"/></linearGradient>
<linearGradient id="bg-underwater" x1="0%" y1="0%" x2="0%" y2="100%"><stop offset="0%" stop-color="#006994"/><stop offset="100%" stop-color="#003050"/></linearGradient>
<linearGradient id="bg-volcano" x1="0%" y1="0%" x2="0%" y2="100%"><stop offset="0%" stop-color="#1A0A00"/><stop offset="60%" stop-color="#4A1A00"/><stop offset="100%" stop-color="#FF4500"/></linearGradient>
<linearGradient id="bg-aurora-bg" x1="0%" y1="0%" x2="100%" y2="100%"><stop offset="0%" stop-color="#0B1A30"/><stop offset="33%" stop-color="#1A4A3A"/><stop offset="66%" stop-color="#2A1A5A"/><stop offset="100%" stop-color="#0B1A30"/></linearGradient>
<linearGradient id="bg-multiverse" x1="0%" y1="0%" x2="100%" y2="100%"><stop offset="0%" stop-color="#FF006E"/><stop offset="25%" stop-color="#8338EC"/><stop offset="50%" stop-color="#3A86FF"/><stop offset="75%" stop-color="#06D6A0"/><stop offset="100%" stop-color="#FFD166"/></linearGradient>
<radialGradient id="bg-black-hole" cx="50%" cy="50%" r="50%"><stop offset="0%" stop-color="#000000"/><stop offset="60%" stop-color="#1A0530"/><stop offset="100%" stop-color="#4A1A70"/></radialGradient>
<linearGradient id="bg-dimension" x1="0%" y1="0%" x2="100%" y2="100%"><stop offset="0%" stop-color="#FF0080"/><stop offset="50%" stop-color="#0000FF"/><stop offset="100%" stop-color="#00FF80"/></linearGradient>
<linearGradient id="bg-heaven" x1="0%" y1="0%" x2="0%" y2="100%"><stop offset="0%" stop-color="#FFFDE0"/><stop offset="100%" stop-color="#FFF8E1"/></linearGradient>
<linearGradient id="bg-mountains" x1="0%" y1="0%" x2="0%" y2="100%"><stop offset="0%" stop-color="#87CEEB"/><stop offset="100%" stop-color="#B0C4DE"/></linearGradient>
<linearGradient id="bg-city" x1="0%" y1="0%" x2="0%" y2="100%"><stop offset="0%" stop-color="#1A1A2E"/><stop offset="100%" stop-color="#16213E"/></linearGradient>
<clipPath id="body-clip"><circle cx="200" cy="200" r="88"/></clipPath>
</defs>
<rect width="400" height="400" fill="url(#bg-beach)"/>
<path d="M0 190 Q100 175 200 190 T400 190" stroke="#5DADE2" stroke-width="2" fill="none" opacity="0.5"/>
<ellipse cx="200" cy="200" rx="134" ry="64" fill="#808080" transform="rotate(0.0 200 200)" opacity="0.75"/>
<ellipse cx="200" cy="200" rx="141" ry="60" fill="#808080" transform="rotate(22.5 200 200)" opacity="0.75"/>
<ellipse cx="200" cy="200" rx="148" ry="56" fill="#808080" transform="rotate(45.0 200 200)" opacity="0.75"/>
<ellipse cx="200" cy="200" rx="135" ry="67" fill="#808080" transform="rotate(67.5 200 200)" opacity="0.75"/>
<ellipse cx="200" cy="200" rx="142" ry="63" fill="#808080" transform="rotate(90.0 200 200)" opacity="0.75"/>
<ellipse cx="200" cy="200" rx="149" ry="59" fill="#808080" transform="rotate(112.5 200 200)" opacity="0.75"/>
<ellipse cx="200" cy="200" rx="136" ry="55" fill="#808080" transform="rotate(135.0 200 200)" opacity="0.75"/>
<ellipse cx="200" cy="200" rx="143" ry="66" fill="#808080" transform="rotate(157.5 200 200)" opacity="0.75"/>
<ellipse cx="200" cy="200" rx="130" ry="62" fill="#808080" transform="rotate(180.0 200 200)" opacity="0.75"/>
<ellipse cx="200" cy="200" rx="137" ry="58" fill="#808080" transform="rotate(202.5 200 200)" opacity="0.75"/>
<ellipse cx="200" cy="200" rx="144" ry="69" fill="#808080" transform="rotate(225.0 200 200)" opacity="0.75"/>
<ellipse cx="200" cy="200" rx="131" ry="65" fill="#808080" transform="rotate(247.5 200 200)" opacity="0.75"/>
<ellipse cx="200" cy="200" rx="138" ry="61" fill="#808080" transform="rotate(270.0 200 200)" opacity="0.75"/>
<ellipse cx="200" cy="200" rx="145" ry="57" fill="#808080" transform="rotate(292.5 200 200)" opacity="0.75"/>
<ellipse cx="200" cy="200" rx="132" ry="68" fill="#808080" transform="rotate(315.0 200 200)" opacity="0.75"/>
<ellipse cx="200" cy="200" rx="139" ry="64" fill="#808080" transform="rotate(337.5 200 200)" opacity="0.75"/>
<circle cx="200" cy="200" r="110" fill="#606060" opacity="0.5"/>
<circle cx="132" cy="132" r="22" fill="#C0C0C0"/>
<circle cx="132" cy="132" r="12" fill="#E8E8E8" opacity="0.5"/>
<circle cx="268" cy="132" r="22" fill="#C0C0C0"/>
<circle cx="268" cy="132" r="12" fill="#E8E8E8" opacity="0.5"/>
<circle cx="200" cy="200" r="90" fill="#C0C0C0" filter="url(#shadow)"/>
<ellipse cx="200" cy="230" rx="48" ry="38" fill="#E8E8E8" opacity="0.5"/>
<g clip-path="url(#body-clip)" opacity="0.3">
<path d="M179 237.8 Q171 231.4 175.0 228.2 Q179 225 179 231.4 Q179 225 183.0 228.2 Q187 231.4 179 237.8 Z" fill="#909090"/>
<path d="M203 225.8 Q195 219.4 199.0 216.2 Q203 213 203 219.4 Q203 213 207.0 216.2 Q211 219.4 203 225.8 Z" fill="#909090"/>
<path d="M227 213.8 Q219 207.4 223.0 204.2 Q227 201 227 207.4 Q227 201 231.0 204.2 Q235 207.4 227 213.8 Z" fill="#909090"/>
<path d="M161 201.8 Q153 195.4 157.0 192.2 Q161 189 161 195.4 Q161 189 165.0 192.2 Q169 195.4 161 201.8 Z" fill="#909090"/>
<path d="M185 189.8 Q177 183.4 181.0 180.2 Q185 177 185 183.4 Q185 177 189.0 180.2 Q193 183.4 185 189.8 Z" fill="#909090"/>
<path d="M209 177.8 Q201 171.4 205.0 168.2 Q209 165 209 171.4 Q209 165 213.0 168.2 Q217 171.4 209 177.8 Z" fill="#909090"/>
</g>
<path d="M158 188 Q170 178 182 188" stroke="#000" stroke-width="2.5" fill="none" stroke-linecap="round"/>
<path d="M218 188 Q230 178 242 188" stroke="#000" stroke-width="2.5" fill="none" stroke-linecap="round"/>
<circle cx="200" cy="163" r="4" fill="#FFD700" opacity="0.7"/>
<path d="M188 220 Q200 212 212 220 L200 232 Z" fill="#3E2723"/>
<path d="M185 238 Q200 246 215 238" stroke="#3E2723" stroke-width="2" fill="none" stroke-linecap="round"/>
<line x1="170" y1="215" x2="130" y2="212" stroke="#3E2723" stroke-width="1" opacity="0.3"/>
<line x1="170" y1="225" x2="130" y2="222" stroke="#3E2723" stroke-width="1" opacity="0.3"/>
<line x1="230" y1="215" x2="270" y2="218" stroke="#3E2723" stroke-width="1" opacity="0.3"/>
<line x1="230" y1="225" x2="270" y2="228" stroke="#3E2723" stroke-width="1" opacity="0.3"/>
<polygon points="200,30 155,120 245,120" fill="#2C3E80"/>
<ellipse cx="200" cy="120" rx="55" ry="10" fill="#1A2550"/>
<polygon points="190.0,75.0 191.5,78.0 194.8,78.5 192.4,80.8 192.9,84.0 190.0,82.5 187.1,84.0 187.6,80.8 185.2,78.5 188.5,78.0" fill="#FFD700"/>
<polygon points="215.0,56.0 216.2,58.4 218.8,58.8 216.9,60.6 217.4,63.2 215.0,62.0 212.6,63.2 213.1,60.6 211.2,58.8 213.8,58.4" fill="#FFD700"/>
<ellipse cx="200" cy="300" rx="90" ry="20" fill="#000" opacity="0.2"/>
</svg>