<svg width="400" height="400" viewBox="0 0 400 400" xmlns="http://www.w3.org/2000/svg">
<defs>
<filter id="shadow" x="-20%" y="-20%" width="140%" height="140%"><feDropShadow dx="2" dy="4" stdDeviation="3" flood-opacity="0.3"/></filter>
<filter id="glow"><feGaussianBlur in="SourceGraphic" stdDeviation="8" result="blur"/><feMerge><feMergeNode in="blur"/><feMergeNode in="SourceGraphic"/></feMerge></filter>
<filter id="glow-strong"><feGaussianBlur in="SourceGraphic" stdDeviation="15" result="blur"/><feMerge><feMergeNode in="blur"/><feMergeNode in="blur"/><feMergeNode in="SourceGraphic"/></feMerge></filter>
<linearGradient id="bg-sky" x1="0%" y1="0%" x2="0%" y2="100%"><stop offset="0%" stop-color="#87CEEB"/><stop offset="100%" stop-color="#E0F4FF"/></linearGradient>
<linearGradient id="bg-sunset" x1="0%" y1="0%" x2="0%" y2="100%"><stop offset="0%" stop-color="#FF4500"/><stop offset="40%" stop-color="#FF8C00"/><stop offset="100%" stop-color="#FFD700"/></linearGradient>
<linearGradient id="bg-forest" x1="0%" y1="0%" x2="0%" y2="100%"><stop offset="0%" stop-color="#2D5016"/><stop offset="100%" stop-color="#4A7A2E"/></linearGradient>
<linearGradient id="bg-grass" x1="0%" y1="0%" x2="0%" y2="100%"><stop offset="0%" stop-color="#87CEEB"/><stop offset="60%" stop-color="#87CEEB"/><stop offset="60%" stop-color="#7CCD7C"/><stop offset="100%" stop-color="#4A8B3F"/></linearGradient>
<linearGradient id="bg-beach" x1="0%" y1="0%" x2="0%" y2="100%"><stop offset="0%" stop-color="#87CEEB"/><stop offset="50%" stop-color="#87CEEB"/><stop offset="50%" stop-color="#F4D03F"/><stop offset="100%" stop-color="#E8C430"/></linearGradient>
<linearGradient id="bg-space" x1="0%" y1="0%" x2="0%" y2="100%"><stop offset="0%" stop-color="#0B0B2B"/><stop offset="100%" stop-color="#1A1A4A"/></linearGradient>
<linearGradient id="bg-underwater" x1="0%" y1="0%" x2="0%" y2="100%"><stop offset="0%" stop-color="#006994"/><stop offset="100%" stop-color="#003050"/></linearGradient>
<linearGradient id="bg-volcano" x1="0%" y1="0%" x2="0%" y2="100%"><stop offset="0%" stop-color="#1A0A00"/><stop offset="60%" stop-color="#4A1A00"/><stop offset="100%" stop-color="#FF4500"/></linearGradient>
<linearGradient id="bg-aurora-bg" x1="0%" y1="0%" x2="100%" y2="100%"><stop offset="0%" stop-color="#0B1A30"/><stop offset="33%" stop-color="#1A4A3A"/><stop offset="66%" stop-color="#2A1A5A"/><stop offset="100%" stop-color="#0B1A30"/></linearGradient>
<linearGradient id="bg-multiverse" x1="0%" y1="0%" x2="100%" y2="100%"><stop offset="0%" stop-color="#FF006E"/><stop offset="25%" stop-color="#8338EC"/><stop offset="50%" stop-color="#3A86FF"/><stop offset="75%" stop-color="#06D6A0"/><stop offset="100%" stop-color="#FFD166"/></linearGradient>
<radialGradient id="bg-black-hole" cx="50%" cy="50%" r="50%"><stop offset="0%" stop-color="#000000"/><stop offset="60%" stop-color="#1A0530"/><stop offset="100%" stop-color="#4A1A70"/></radialGradient>
<linearGradient id="bg-dimension" x1="0%" y1="0%" x2="100%" y2="100%"><stop offset="0%" stop-color="#FF0080"/><stop offset="50%" stop-color="#0000FF"/><stop offset="100%" stop-color="#00FF80"/></linearGradient>
<linearGradient id="bg-heaven" x1="0%" y1="0%" x2="0%" y2="100%"><stop offset="0%" stop-color="#FFFDE0"/><stop offset="100%" stop-color="#FFF8E1"/></linearGradient>
<linearGradient id="bg-mountains" x1="0%" y1="0%" x2="0%" y2="100%"><stop offset="0%" stop-color="#87CEEB"/><stop offset="100%" stop-color="#B0C4DE"/></linearGradient>
<linearGradient id="bg-city" x1="0%" y1="0%" x2="0%" y2="100%"><stop offset="0%" stop-color="#1A1A2E"/><stop offset="100%" stop-color="#16213E"/></linearGradient>
<clipPath id="body-clip"><circle cx="200" cy="200" r="88"/></clipPath>
</defs>
<rect width="400" height="400" fill="url(#bg-beach)"/>
<path d="M0 190 Q100 175 200 190 T400 190" stroke="#5DADE2" stroke-width="2" fill="none" opacity="0.5"/>
<ellipse cx="200" cy="200" rx="132" ry="57" fill="#C8B88A" transform="rotate(0.0 200 200)" opacity="0.75"/>
<ellipse cx="200" cy="200" rx="139" ry="68" fill="#C8B88A" transform="rotate(22.5 200 200)" opacity="0.75"/>
<ellipse cx="200" cy="200" rx="146" ry="64" fill="#C8B88A" transform="rotate(45.0 200 200)" opacity="0.75"/>
<ellipse cx="200" cy="200" rx="133" ry="60" fill="#C8B88A" transform="rotate(67.5 200 200)" opacity="0.75"/>
<ellipse cx="200" cy="200" rx="140" ry="56" fill="#C8B88A" transform="rotate(90.0 200 200)" opacity="0.75"/>
<ellipse cx="200" cy="200" rx="147" ry="67" fill="#C8B88A" transform="rotate(112.5 200 200)" opacity="0.75"/>
<ellipse cx="200" cy="200" rx="134" ry="63" fill="#C8B88A" transform="rotate(135.0 200 200)" opacity="0.75"/>
<ellipse cx="200" cy="200" rx="141" ry="59" fill="#C8B88A" transform="rotate(157.5 200 200)" opacity="0.75"/>
<ellipse cx="200" cy="200" rx="148" ry="55" fill="#C8B88A" transform="rotate(180.0 200 200)" opacity="0.75"/>
<ellipse cx="200" cy="200" rx="135" ry="66" fill="#C8B88A" transform="rotate(202.5 200 200)" opacity="0.75"/>
<ellipse cx="200" cy="200" rx="142" ry="62" fill="#C8B88A" transform="rotate(225.0 200 200)" opacity="0.75"/>
<ellipse cx="200" cy="200" rx="149" ry="58" fill="#C8B88A" transform="rotate(247.5 200 200)" opacity="0.75"/>
<ellipse cx="200" cy="200" rx="136" ry="69" fill="#C8B88A" transform="rotate(270.0 200 200)" opacity="0.75"/>
<ellipse cx="200" cy="200" rx="143" ry="65" fill="#C8B88A" transform="rotate(292.5 200 200)" opacity="0.75"/>
<ellipse cx="200" cy="200" rx="130" ry="61" fill="#C8B88A" transform="rotate(315.0 200 200)" opacity="0.75"/>
<ellipse cx="200" cy="200" rx="137" ry="57" fill="#C8B88A" transform="rotate(337.5 200 200)" opacity="0.75"/>
<circle cx="200" cy="200" r="110" fill="#A09068" opacity="0.5"/>
<circle cx="132" cy="132" r="22" fill="#F5F5DC"/>
<circle cx="132" cy="132" r="12" fill="#FFFFF0" opacity="0.5"/>
<circle cx="268" cy="132" r="22" fill="#F5F5DC"/>
<circle cx="268" cy="132" r="12" fill="#FFFFF0" opacity="0.5"/>
<circle cx="200" cy="200" r="90" fill="#F5F5DC" filter="url(#shadow)"/>
<ellipse cx="200" cy="230" rx="48" ry="38" fill="#FFFFF0" opacity="0.5"/>
<g clip-path="url(#body-clip)" opacity="0.3">
<circle cx="226" cy="234" r="11" fill="#D4D4B8"/>
<circle cx="192" cy="208" r="12" fill="#D4D4B8"/>
<circle cx="158" cy="182" r="5" fill="#D4D4B8"/>
<circle cx="244" cy="156" r="6" fill="#D4D4B8"/>
<circle cx="210" cy="250" r="7" fill="#D4D4B8"/>
<circle cx="176" cy="224" r="8" fill="#D4D4B8"/>
<circle cx="142" cy="198" r="9" fill="#D4D4B8"/>
<circle cx="228" cy="172" r="10" fill="#D4D4B8"/>
<circle cx="194" cy="146" r="11" fill="#D4D4B8"/>
<circle cx="160" cy="240" r="12" fill="#D4D4B8"/>
<circle cx="246" cy="214" r="5" fill="#D4D4B8"/>
<circle cx="212" cy="188" r="6" fill="#D4D4B8"/>
</g>
<ellipse cx="170" cy="188" rx="12" ry="7" fill="#FFD700"/>
<ellipse cx="170" cy="188" r="4" fill="#000"/>
<line x1="156" y1="180" x2="184" y2="180" stroke="#000" stroke-width="2"/>
<ellipse cx="230" cy="188" rx="12" ry="7" fill="#FFD700"/>
<ellipse cx="230" cy="188" r="4" fill="#000"/>
<line x1="216" y1="180" x2="244" y2="180" stroke="#000" stroke-width="2"/>
<path d="M188 220 Q200 212 212 220 L200 232 Z" fill="#3E2723"/>
<path d="M182 240 Q200 248 218 238" stroke="#3E2723" stroke-width="2" fill="none" stroke-linecap="round"/>
<line x1="170" y1="215" x2="130" y2="212" stroke="#3E2723" stroke-width="1" opacity="0.3"/>
<line x1="170" y1="225" x2="130" y2="222" stroke="#3E2723" stroke-width="1" opacity="0.3"/>
<line x1="230" y1="215" x2="270" y2="218" stroke="#3E2723" stroke-width="1" opacity="0.3"/>
<line x1="230" y1="225" x2="270" y2="228" stroke="#3E2723" stroke-width="1" opacity="0.3"/>
<rect x="154" y="176" width="28" height="18" rx="4" fill="#111" opacity="0.85"/>
<rect x="218" y="176" width="28" height="18" rx="4" fill="#111" opacity="0.85"/>
<line x1="182" y1="186" x2="218" y2="186" stroke="#333" stroke-width="2"/>
<line x1="154" y1="182" x2="140" y2="176" stroke="#333" stroke-width="2"/>
<line x1="246" y1="182" x2="260" y2="176" stroke="#333" stroke-width="2"/>
<polygon points="258.0,182.0 258.9,184.7 261.8,184.8 259.5,186.5 260.4,189.2 258.0,187.6 255.6,189.2 256.5,186.5 254.2,184.8 257.1,184.7" fill="#FFD700"/>
<polygon points="116.0,367.0 117.2,370.4 120.8,370.5 117.9,372.6 118.9,376.0 116.0,374.0 113.1,376.0 114.1,372.6 111.2,370.5 114.8,370.4" fill="#FFD700"/>
<polygon points="374.0,152.0 375.4,156.1 379.7,156.1 376.3,158.7 377.5,162.9 374.0,160.4 370.5,162.9 371.7,158.7 368.3,156.1 372.6,156.1" fill="#FFD700"/>
<polygon points="232.0,337.0 233.6,341.7 238.7,341.8 234.7,344.9 236.1,349.7 232.0,346.8 227.9,349.7 229.3,344.9 225.3,341.8 230.4,341.7" fill="#FFD700"/>
<polygon points="90.0,122.0 91.9,127.4 97.6,127.5 93.0,131.0 94.7,136.5 90.0,133.2 85.3,136.5 87.0,131.0 82.4,127.5 88.1,127.4" fill="#FFD700"/>
<polygon points="348.0,312.0 348.9,314.7 351.8,314.8 349.5,316.5 350.4,319.2 348.0,317.6 345.6,319.2 346.5,316.5 344.2,314.8 347.1,314.7" fill="#FFD700"/>
<polygon points="206.0,97.0 207.2,100.4 210.8,100.5 207.9,102.6 208.9,106.0 206.0,104.0 203.1,106.0 204.1,102.6 201.2,100.5 204.8,100.4" fill="#FFD700"/>
<polygon points="64.0,282.0 65.4,286.1 69.7,286.1 66.3,288.7 67.5,292.9 64.0,290.4 60.5,292.9 61.7,288.7 58.3,286.1 62.6,286.1" fill="#FFD700"/>
<polygon points="322.0,67.0 323.6,71.7 328.7,71.8 324.7,74.9 326.1,79.7 322.0,76.8 317.9,79.7 319.3,74.9 315.3,71.8 320.4,71.7" fill="#FFD700"/>
<polygon points="180.0,252.0 181.9,257.4 187.6,257.5 183.0,261.0 184.7,266.5 180.0,263.2 175.3,266.5 177.0,261.0 172.4,257.5 178.1,257.4" fill="#FFD700"/>
</svg>