<svg width="400" height="400" viewBox="0 0 400 400" xmlns="http://www.w3.org/2000/svg">
<defs>
<filter id="shadow" x="-20%" y="-20%" width="140%" height="140%"><feDropShadow dx="2" dy="4" stdDeviation="3" flood-opacity="0.3"/></filter>
<filter id="glow"><feGaussianBlur in="SourceGraphic" stdDeviation="8" result="blur"/><feMerge><feMergeNode in="blur"/><feMergeNode in="SourceGraphic"/></feMerge></filter>
<filter id="glow-strong"><feGaussianBlur in="SourceGraphic" stdDeviation="15" result="blur"/><feMerge><feMergeNode in="blur"/><feMergeNode in="blur"/><feMergeNode in="SourceGraphic"/></feMerge></filter>
<linearGradient id="bg-sky" x1="0%" y1="0%" x2="0%" y2="100%"><stop offset="0%" stop-color="#87CEEB"/><stop offset="100%" stop-color="#E0F4FF"/></linearGradient>
<linearGradient id="bg-sunset" x1="0%" y1="0%" x2="0%" y2="100%"><stop offset="0%" stop-color="#FF4500"/><stop offset="40%" stop-color="#FF8C00"/><stop offset="100%" stop-color="#FFD700"/></linearGradient>
<linearGradient id="bg-forest" x1="0%" y1="0%" x2="0%" y2="100%"><stop offset="0%" stop-color="#2D5016"/><stop offset="100%" stop-color="#4A7A2E"/></linearGradient>
<linearGradient id="bg-grass" x1="0%" y1="0%" x2="0%" y2="100%"><stop offset="0%" stop-color="#87CEEB"/><stop offset="60%" stop-color="#87CEEB"/><stop offset="60%" stop-color="#7CCD7C"/><stop offset="100%" stop-color="#4A8B3F"/></linearGradient>
<linearGradient id="bg-beach" x1="0%" y1="0%" x2="0%" y2="100%"><stop offset="0%" stop-color="#87CEEB"/><stop offset="50%" stop-color="#87CEEB"/><stop offset="50%" stop-color="#F4D03F"/><stop offset="100%" stop-color="#E8C430"/></linearGradient>
<linearGradient id="bg-space" x1="0%" y1="0%" x2="0%" y2="100%"><stop offset="0%" stop-color="#0B0B2B"/><stop offset="100%" stop-color="#1A1A4A"/></linearGradient>
<linearGradient id="bg-underwater" x1="0%" y1="0%" x2="0%" y2="100%"><stop offset="0%" stop-color="#006994"/><stop offset="100%" stop-color="#003050"/></linearGradient>
<linearGradient id="bg-volcano" x1="0%" y1="0%" x2="0%" y2="100%"><stop offset="0%" stop-color="#1A0A00"/><stop offset="60%" stop-color="#4A1A00"/><stop offset="100%" stop-color="#FF4500"/></linearGradient>
<linearGradient id="bg-aurora-bg" x1="0%" y1="0%" x2="100%" y2="100%"><stop offset="0%" stop-color="#0B1A30"/><stop offset="33%" stop-color="#1A4A3A"/><stop offset="66%" stop-color="#2A1A5A"/><stop offset="100%" stop-color="#0B1A30"/></linearGradient>
<linearGradient id="bg-multiverse" x1="0%" y1="0%" x2="100%" y2="100%"><stop offset="0%" stop-color="#FF006E"/><stop offset="25%" stop-color="#8338EC"/><stop offset="50%" stop-color="#3A86FF"/><stop offset="75%" stop-color="#06D6A0"/><stop offset="100%" stop-color="#FFD166"/></linearGradient>
<radialGradient id="bg-black-hole" cx="50%" cy="50%" r="50%"><stop offset="0%" stop-color="#000000"/><stop offset="60%" stop-color="#1A0530"/><stop offset="100%" stop-color="#4A1A70"/></radialGradient>
<linearGradient id="bg-dimension" x1="0%" y1="0%" x2="100%" y2="100%"><stop offset="0%" stop-color="#FF0080"/><stop offset="50%" stop-color="#0000FF"/><stop offset="100%" stop-color="#00FF80"/></linearGradient>
<linearGradient id="bg-heaven" x1="0%" y1="0%" x2="0%" y2="100%"><stop offset="0%" stop-color="#FFFDE0"/><stop offset="100%" stop-color="#FFF8E1"/></linearGradient>
<linearGradient id="bg-mountains" x1="0%" y1="0%" x2="0%" y2="100%"><stop offset="0%" stop-color="#87CEEB"/><stop offset="100%" stop-color="#B0C4DE"/></linearGradient>
<linearGradient id="bg-city" x1="0%" y1="0%" x2="0%" y2="100%"><stop offset="0%" stop-color="#1A1A2E"/><stop offset="100%" stop-color="#16213E"/></linearGradient>
<clipPath id="body-clip"><circle cx="200" cy="200" r="88"/></clipPath>
</defs>
<rect width="400" height="400" fill="url(#bg-city)"/>
<rect x="20" y="260" width="30" height="140" fill="#0F3460" opacity="0.7"/>
<rect x="25" y="270" width="5" height="8" fill="#FFD700" opacity="0.8"/>
<rect x="35" y="270" width="5" height="8" fill="#1A1A2E" opacity="0.8"/>
<rect x="25" y="290" width="5" height="8" fill="#FFD700" opacity="0.8"/>
<rect x="35" y="290" width="5" height="8" fill="#FFD700" opacity="0.8"/>
<rect x="25" y="310" width="5" height="8" fill="#1A1A2E" opacity="0.8"/>
<rect x="35" y="310" width="5" height="8" fill="#FFD700" opacity="0.8"/>
<rect x="25" y="330" width="5" height="8" fill="#FFD700" opacity="0.8"/>
<rect x="35" y="330" width="5" height="8" fill="#1A1A2E" opacity="0.8"/>
<rect x="25" y="350" width="5" height="8" fill="#FFD700" opacity="0.8"/>
<rect x="35" y="350" width="5" height="8" fill="#FFD700" opacity="0.8"/>
<rect x="25" y="370" width="5" height="8" fill="#1A1A2E" opacity="0.8"/>
<rect x="35" y="370" width="5" height="8" fill="#FFD700" opacity="0.8"/>
<rect x="60" y="220" width="40" height="180" fill="#0F3460" opacity="0.7"/>
<rect x="65" y="230" width="5" height="8" fill="#FFD700" opacity="0.8"/>
<rect x="75" y="230" width="5" height="8" fill="#1A1A2E" opacity="0.8"/>
<rect x="85" y="230" width="5" height="8" fill="#FFD700" opacity="0.8"/>
<rect x="65" y="250" width="5" height="8" fill="#FFD700" opacity="0.8"/>
<rect x="75" y="250" width="5" height="8" fill="#FFD700" opacity="0.8"/>
<rect x="85" y="250" width="5" height="8" fill="#1A1A2E" opacity="0.8"/>
<rect x="65" y="270" width="5" height="8" fill="#1A1A2E" opacity="0.8"/>
<rect x="75" y="270" width="5" height="8" fill="#FFD700" opacity="0.8"/>
<rect x="85" y="270" width="5" height="8" fill="#FFD700" opacity="0.8"/>
<rect x="65" y="290" width="5" height="8" fill="#FFD700" opacity="0.8"/>
<rect x="75" y="290" width="5" height="8" fill="#1A1A2E" opacity="0.8"/>
<rect x="85" y="290" width="5" height="8" fill="#FFD700" opacity="0.8"/>
<rect x="65" y="310" width="5" height="8" fill="#FFD700" opacity="0.8"/>
<rect x="75" y="310" width="5" height="8" fill="#FFD700" opacity="0.8"/>
<rect x="85" y="310" width="5" height="8" fill="#1A1A2E" opacity="0.8"/>
<rect x="65" y="330" width="5" height="8" fill="#1A1A2E" opacity="0.8"/>
<rect x="75" y="330" width="5" height="8" fill="#FFD700" opacity="0.8"/>
<rect x="85" y="330" width="5" height="8" fill="#FFD700" opacity="0.8"/>
<rect x="65" y="350" width="5" height="8" fill="#FFD700" opacity="0.8"/>
<rect x="75" y="350" width="5" height="8" fill="#1A1A2E" opacity="0.8"/>
<rect x="85" y="350" width="5" height="8" fill="#FFD700" opacity="0.8"/>
<rect x="65" y="370" width="5" height="8" fill="#FFD700" opacity="0.8"/>
<rect x="75" y="370" width="5" height="8" fill="#FFD700" opacity="0.8"/>
<rect x="85" y="370" width="5" height="8" fill="#1A1A2E" opacity="0.8"/>
<rect x="100" y="280" width="35" height="120" fill="#0F3460" opacity="0.7"/>
<rect x="105" y="290" width="5" height="8" fill="#1A1A2E" opacity="0.8"/>
<rect x="115" y="290" width="5" height="8" fill="#FFD700" opacity="0.8"/>
<rect x="125" y="290" width="5" height="8" fill="#FFD700" opacity="0.8"/>
<rect x="105" y="310" width="5" height="8" fill="#FFD700" opacity="0.8"/>
<rect x="115" y="310" width="5" height="8" fill="#1A1A2E" opacity="0.8"/>
<rect x="125" y="310" width="5" height="8" fill="#FFD700" opacity="0.8"/>
<rect x="105" y="330" width="5" height="8" fill="#FFD700" opacity="0.8"/>
<rect x="115" y="330" width="5" height="8" fill="#FFD700" opacity="0.8"/>
<rect x="125" y="330" width="5" height="8" fill="#1A1A2E" opacity="0.8"/>
<rect x="105" y="350" width="5" height="8" fill="#1A1A2E" opacity="0.8"/>
<rect x="115" y="350" width="5" height="8" fill="#FFD700" opacity="0.8"/>
<rect x="125" y="350" width="5" height="8" fill="#FFD700" opacity="0.8"/>
<rect x="105" y="370" width="5" height="8" fill="#FFD700" opacity="0.8"/>
<rect x="115" y="370" width="5" height="8" fill="#1A1A2E" opacity="0.8"/>
<rect x="125" y="370" width="5" height="8" fill="#FFD700" opacity="0.8"/>
<rect x="140" y="200" width="30" height="200" fill="#0F3460" opacity="0.7"/>
<rect x="145" y="210" width="5" height="8" fill="#FFD700" opacity="0.8"/>
<rect x="155" y="210" width="5" height="8" fill="#1A1A2E" opacity="0.8"/>
<rect x="145" y="230" width="5" height="8" fill="#FFD700" opacity="0.8"/>
<rect x="155" y="230" width="5" height="8" fill="#FFD700" opacity="0.8"/>
<rect x="145" y="250" width="5" height="8" fill="#1A1A2E" opacity="0.8"/>
<rect x="155" y="250" width="5" height="8" fill="#FFD700" opacity="0.8"/>
<rect x="145" y="270" width="5" height="8" fill="#FFD700" opacity="0.8"/>
<rect x="155" y="270" width="5" height="8" fill="#1A1A2E" opacity="0.8"/>
<rect x="145" y="290" width="5" height="8" fill="#FFD700" opacity="0.8"/>
<rect x="155" y="290" width="5" height="8" fill="#FFD700" opacity="0.8"/>
<rect x="145" y="310" width="5" height="8" fill="#1A1A2E" opacity="0.8"/>
<rect x="155" y="310" width="5" height="8" fill="#FFD700" opacity="0.8"/>
<rect x="145" y="330" width="5" height="8" fill="#FFD700" opacity="0.8"/>
<rect x="155" y="330" width="5" height="8" fill="#1A1A2E" opacity="0.8"/>
<rect x="145" y="350" width="5" height="8" fill="#FFD700" opacity="0.8"/>
<rect x="155" y="350" width="5" height="8" fill="#FFD700" opacity="0.8"/>
<rect x="145" y="370" width="5" height="8" fill="#1A1A2E" opacity="0.8"/>
<rect x="155" y="370" width="5" height="8" fill="#FFD700" opacity="0.8"/>
<rect x="180" y="250" width="40" height="150" fill="#0F3460" opacity="0.7"/>
<rect x="185" y="260" width="5" height="8" fill="#FFD700" opacity="0.8"/>
<rect x="195" y="260" width="5" height="8" fill="#1A1A2E" opacity="0.8"/>
<rect x="205" y="260" width="5" height="8" fill="#FFD700" opacity="0.8"/>
<rect x="185" y="280" width="5" height="8" fill="#FFD700" opacity="0.8"/>
<rect x="195" y="280" width="5" height="8" fill="#FFD700" opacity="0.8"/>
<rect x="205" y="280" width="5" height="8" fill="#1A1A2E" opacity="0.8"/>
<rect x="185" y="300" width="5" height="8" fill="#1A1A2E" opacity="0.8"/>
<rect x="195" y="300" width="5" height="8" fill="#FFD700" opacity="0.8"/>
<rect x="205" y="300" width="5" height="8" fill="#FFD700" opacity="0.8"/>
<rect x="185" y="320" width="5" height="8" fill="#FFD700" opacity="0.8"/>
<rect x="195" y="320" width="5" height="8" fill="#1A1A2E" opacity="0.8"/>
<rect x="205" y="320" width="5" height="8" fill="#FFD700" opacity="0.8"/>
<rect x="185" y="340" width="5" height="8" fill="#FFD700" opacity="0.8"/>
<rect x="195" y="340" width="5" height="8" fill="#FFD700" opacity="0.8"/>
<rect x="205" y="340" width="5" height="8" fill="#1A1A2E" opacity="0.8"/>
<rect x="185" y="360" width="5" height="8" fill="#1A1A2E" opacity="0.8"/>
<rect x="195" y="360" width="5" height="8" fill="#FFD700" opacity="0.8"/>
<rect x="205" y="360" width="5" height="8" fill="#FFD700" opacity="0.8"/>
<rect x="185" y="380" width="5" height="8" fill="#FFD700" opacity="0.8"/>
<rect x="195" y="380" width="5" height="8" fill="#1A1A2E" opacity="0.8"/>
<rect x="205" y="380" width="5" height="8" fill="#FFD700" opacity="0.8"/>
<rect x="220" y="210" width="35" height="190" fill="#0F3460" opacity="0.7"/>
<rect x="225" y="220" width="5" height="8" fill="#FFD700" opacity="0.8"/>
<rect x="235" y="220" width="5" height="8" fill="#1A1A2E" opacity="0.8"/>
<rect x="245" y="220" width="5" height="8" fill="#FFD700" opacity="0.8"/>
<rect x="225" y="240" width="5" height="8" fill="#FFD700" opacity="0.8"/>
<rect x="235" y="240" width="5" height="8" fill="#FFD700" opacity="0.8"/>
<rect x="245" y="240" width="5" height="8" fill="#1A1A2E" opacity="0.8"/>
<rect x="225" y="260" width="5" height="8" fill="#1A1A2E" opacity="0.8"/>
<rect x="235" y="260" width="5" height="8" fill="#FFD700" opacity="0.8"/>
<rect x="245" y="260" width="5" height="8" fill="#FFD700" opacity="0.8"/>
<rect x="225" y="280" width="5" height="8" fill="#FFD700" opacity="0.8"/>
<rect x="235" y="280" width="5" height="8" fill="#1A1A2E" opacity="0.8"/>
<rect x="245" y="280" width="5" height="8" fill="#FFD700" opacity="0.8"/>
<rect x="225" y="300" width="5" height="8" fill="#FFD700" opacity="0.8"/>
<rect x="235" y="300" width="5" height="8" fill="#FFD700" opacity="0.8"/>
<rect x="245" y="300" width="5" height="8" fill="#1A1A2E" opacity="0.8"/>
<rect x="225" y="320" width="5" height="8" fill="#1A1A2E" opacity="0.8"/>
<rect x="235" y="320" width="5" height="8" fill="#FFD700" opacity="0.8"/>
<rect x="245" y="320" width="5" height="8" fill="#FFD700" opacity="0.8"/>
<rect x="225" y="340" width="5" height="8" fill="#FFD700" opacity="0.8"/>
<rect x="235" y="340" width="5" height="8" fill="#1A1A2E" opacity="0.8"/>
<rect x="245" y="340" width="5" height="8" fill="#FFD700" opacity="0.8"/>
<rect x="225" y="360" width="5" height="8" fill="#FFD700" opacity="0.8"/>
<rect x="235" y="360" width="5" height="8" fill="#FFD700" opacity="0.8"/>
<rect x="245" y="360" width="5" height="8" fill="#1A1A2E" opacity="0.8"/>
<rect x="225" y="380" width="5" height="8" fill="#1A1A2E" opacity="0.8"/>
<rect x="235" y="380" width="5" height="8" fill="#FFD700" opacity="0.8"/>
<rect x="245" y="380" width="5" height="8" fill="#FFD700" opacity="0.8"/>
<rect x="260" y="270" width="30" height="130" fill="#0F3460" opacity="0.7"/>
<rect x="265" y="280" width="5" height="8" fill="#1A1A2E" opacity="0.8"/>
<rect x="275" y="280" width="5" height="8" fill="#FFD700" opacity="0.8"/>
<rect x="265" y="300" width="5" height="8" fill="#FFD700" opacity="0.8"/>
<rect x="275" y="300" width="5" height="8" fill="#1A1A2E" opacity="0.8"/>
<rect x="265" y="320" width="5" height="8" fill="#FFD700" opacity="0.8"/>
<rect x="275" y="320" width="5" height="8" fill="#FFD700" opacity="0.8"/>
<rect x="265" y="340" width="5" height="8" fill="#1A1A2E" opacity="0.8"/>
<rect x="275" y="340" width="5" height="8" fill="#FFD700" opacity="0.8"/>
<rect x="265" y="360" width="5" height="8" fill="#FFD700" opacity="0.8"/>
<rect x="275" y="360" width="5" height="8" fill="#1A1A2E" opacity="0.8"/>
<rect x="265" y="380" width="5" height="8" fill="#FFD700" opacity="0.8"/>
<rect x="275" y="380" width="5" height="8" fill="#FFD700" opacity="0.8"/>
<rect x="300" y="230" width="40" height="170" fill="#0F3460" opacity="0.7"/>
<rect x="305" y="240" width="5" height="8" fill="#1A1A2E" opacity="0.8"/>
<rect x="315" y="240" width="5" height="8" fill="#FFD700" opacity="0.8"/>
<rect x="325" y="240" width="5" height="8" fill="#FFD700" opacity="0.8"/>
<rect x="305" y="260" width="5" height="8" fill="#FFD700" opacity="0.8"/>
<rect x="315" y="260" width="5" height="8" fill="#1A1A2E" opacity="0.8"/>
<rect x="325" y="260" width="5" height="8" fill="#FFD700" opacity="0.8"/>
<rect x="305" y="280" width="5" height="8" fill="#FFD700" opacity="0.8"/>
<rect x="315" y="280" width="5" height="8" fill="#FFD700" opacity="0.8"/>
<rect x="325" y="280" width="5" height="8" fill="#1A1A2E" opacity="0.8"/>
<rect x="305" y="300" width="5" height="8" fill="#1A1A2E" opacity="0.8"/>
<rect x="315" y="300" width="5" height="8" fill="#FFD700" opacity="0.8"/>
<rect x="325" y="300" width="5" height="8" fill="#FFD700" opacity="0.8"/>
<rect x="305" y="320" width="5" height="8" fill="#FFD700" opacity="0.8"/>
<rect x="315" y="320" width="5" height="8" fill="#1A1A2E" opacity="0.8"/>
<rect x="325" y="320" width="5" height="8" fill="#FFD700" opacity="0.8"/>
<rect x="305" y="340" width="5" height="8" fill="#FFD700" opacity="0.8"/>
<rect x="315" y="340" width="5" height="8" fill="#FFD700" opacity="0.8"/>
<rect x="325" y="340" width="5" height="8" fill="#1A1A2E" opacity="0.8"/>
<rect x="305" y="360" width="5" height="8" fill="#1A1A2E" opacity="0.8"/>
<rect x="315" y="360" width="5" height="8" fill="#FFD700" opacity="0.8"/>
<rect x="325" y="360" width="5" height="8" fill="#FFD700" opacity="0.8"/>
<rect x="305" y="380" width="5" height="8" fill="#FFD700" opacity="0.8"/>
<rect x="315" y="380" width="5" height="8" fill="#1A1A2E" opacity="0.8"/>
<rect x="325" y="380" width="5" height="8" fill="#FFD700" opacity="0.8"/>
<rect x="340" y="240" width="35" height="160" fill="#0F3460" opacity="0.7"/>
<rect x="345" y="250" width="5" height="8" fill="#FFD700" opacity="0.8"/>
<rect x="355" y="250" width="5" height="8" fill="#1A1A2E" opacity="0.8"/>
<rect x="365" y="250" width="5" height="8" fill="#FFD700" opacity="0.8"/>
<rect x="345" y="270" width="5" height="8" fill="#FFD700" opacity="0.8"/>
<rect x="355" y="270" width="5" height="8" fill="#FFD700" opacity="0.8"/>
<rect x="365" y="270" width="5" height="8" fill="#1A1A2E" opacity="0.8"/>
<rect x="345" y="290" width="5" height="8" fill="#1A1A2E" opacity="0.8"/>
<rect x="355" y="290" width="5" height="8" fill="#FFD700" opacity="0.8"/>
<rect x="365" y="290" width="5" height="8" fill="#FFD700" opacity="0.8"/>
<rect x="345" y="310" width="5" height="8" fill="#FFD700" opacity="0.8"/>
<rect x="355" y="310" width="5" height="8" fill="#1A1A2E" opacity="0.8"/>
<rect x="365" y="310" width="5" height="8" fill="#FFD700" opacity="0.8"/>
<rect x="345" y="330" width="5" height="8" fill="#FFD700" opacity="0.8"/>
<rect x="355" y="330" width="5" height="8" fill="#FFD700" opacity="0.8"/>
<rect x="365" y="330" width="5" height="8" fill="#1A1A2E" opacity="0.8"/>
<rect x="345" y="350" width="5" height="8" fill="#1A1A2E" opacity="0.8"/>
<rect x="355" y="350" width="5" height="8" fill="#FFD700" opacity="0.8"/>
<rect x="365" y="350" width="5" height="8" fill="#FFD700" opacity="0.8"/>
<rect x="345" y="370" width="5" height="8" fill="#FFD700" opacity="0.8"/>
<rect x="355" y="370" width="5" height="8" fill="#1A1A2E" opacity="0.8"/>
<rect x="365" y="370" width="5" height="8" fill="#FFD700" opacity="0.8"/>
<rect x="370" y="260" width="35" height="140" fill="#0F3460" opacity="0.7"/>
<rect x="375" y="270" width="5" height="8" fill="#FFD700" opacity="0.8"/>
<rect x="385" y="270" width="5" height="8" fill="#FFD700" opacity="0.8"/>
<rect x="395" y="270" width="5" height="8" fill="#1A1A2E" opacity="0.8"/>
<rect x="375" y="290" width="5" height="8" fill="#1A1A2E" opacity="0.8"/>
<rect x="385" y="290" width="5" height="8" fill="#FFD700" opacity="0.8"/>
<rect x="395" y="290" width="5" height="8" fill="#FFD700" opacity="0.8"/>
<rect x="375" y="310" width="5" height="8" fill="#FFD700" opacity="0.8"/>
<rect x="385" y="310" width="5" height="8" fill="#1A1A2E" opacity="0.8"/>
<rect x="395" y="310" width="5" height="8" fill="#FFD700" opacity="0.8"/>
<rect x="375" y="330" width="5" height="8" fill="#FFD700" opacity="0.8"/>
<rect x="385" y="330" width="5" height="8" fill="#FFD700" opacity="0.8"/>
<rect x="395" y="330" width="5" height="8" fill="#1A1A2E" opacity="0.8"/>
<rect x="375" y="350" width="5" height="8" fill="#1A1A2E" opacity="0.8"/>
<rect x="385" y="350" width="5" height="8" fill="#FFD700" opacity="0.8"/>
<rect x="395" y="350" width="5" height="8" fill="#FFD700" opacity="0.8"/>
<rect x="375" y="370" width="5" height="8" fill="#FFD700" opacity="0.8"/>
<rect x="385" y="370" width="5" height="8" fill="#1A1A2E" opacity="0.8"/>
<rect x="395" y="370" width="5" height="8" fill="#FFD700" opacity="0.8"/>
<ellipse cx="200" cy="200" rx="145" ry="65" fill="#7A4A1A" transform="rotate(0.0 200 200)" opacity="0.75"/>
<ellipse cx="200" cy="200" rx="132" ry="61" fill="#7A4A1A" transform="rotate(22.5 200 200)" opacity="0.75"/>
<ellipse cx="200" cy="200" rx="139" ry="57" fill="#7A4A1A" transform="rotate(45.0 200 200)" opacity="0.75"/>
<ellipse cx="200" cy="200" rx="146" ry="68" fill="#7A4A1A" transform="rotate(67.5 200 200)" opacity="0.75"/>
<ellipse cx="200" cy="200" rx="133" ry="64" fill="#7A4A1A" transform="rotate(90.0 200 200)" opacity="0.75"/>
<ellipse cx="200" cy="200" rx="140" ry="60" fill="#7A4A1A" transform="rotate(112.5 200 200)" opacity="0.75"/>
<ellipse cx="200" cy="200" rx="147" ry="56" fill="#7A4A1A" transform="rotate(135.0 200 200)" opacity="0.75"/>
<ellipse cx="200" cy="200" rx="134" ry="67" fill="#7A4A1A" transform="rotate(157.5 200 200)" opacity="0.75"/>
<ellipse cx="200" cy="200" rx="141" ry="63" fill="#7A4A1A" transform="rotate(180.0 200 200)" opacity="0.75"/>
<ellipse cx="200" cy="200" rx="148" ry="59" fill="#7A4A1A" transform="rotate(202.5 200 200)" opacity="0.75"/>
<ellipse cx="200" cy="200" rx="135" ry="55" fill="#7A4A1A" transform="rotate(225.0 200 200)" opacity="0.75"/>
<ellipse cx="200" cy="200" rx="142" ry="66" fill="#7A4A1A" transform="rotate(247.5 200 200)" opacity="0.75"/>
<ellipse cx="200" cy="200" rx="149" ry="62" fill="#7A4A1A" transform="rotate(270.0 200 200)" opacity="0.75"/>
<ellipse cx="200" cy="200" rx="136" ry="58" fill="#7A4A1A" transform="rotate(292.5 200 200)" opacity="0.75"/>
<ellipse cx="200" cy="200" rx="143" ry="69" fill="#7A4A1A" transform="rotate(315.0 200 200)" opacity="0.75"/>
<ellipse cx="200" cy="200" rx="130" ry="65" fill="#7A4A1A" transform="rotate(337.5 200 200)" opacity="0.75"/>
<circle cx="200" cy="200" r="110" fill="#5A3A10" opacity="0.5"/>
<circle cx="132" cy="132" r="22" fill="#B87333"/>
<circle cx="132" cy="132" r="12" fill="#DA8A4A" opacity="0.5"/>
<circle cx="268" cy="132" r="22" fill="#B87333"/>
<circle cx="268" cy="132" r="12" fill="#DA8A4A" opacity="0.5"/>
<circle cx="200" cy="200" r="90" fill="#B87333" filter="url(#shadow)"/>
<ellipse cx="200" cy="230" rx="48" ry="38" fill="#DA8A4A" opacity="0.5"/>
<g clip-path="url(#body-clip)" opacity="0.3">
<circle cx="195" cy="175" r="8" fill="#8B5A2B"/>
<circle cx="250" cy="210" r="9" fill="#8B5A2B"/>
<circle cx="185" cy="245" r="10" fill="#8B5A2B"/>
<circle cx="240" cy="160" r="11" fill="#8B5A2B"/>
<circle cx="175" cy="195" r="12" fill="#8B5A2B"/>
<circle cx="230" cy="230" r="5" fill="#8B5A2B"/>
<circle cx="165" cy="145" r="6" fill="#8B5A2B"/>
<circle cx="220" cy="180" r="7" fill="#8B5A2B"/>
<circle cx="155" cy="215" r="8" fill="#8B5A2B"/>
<circle cx="210" cy="250" r="9" fill="#8B5A2B"/>
<circle cx="145" cy="165" r="10" fill="#8B5A2B"/>
<circle cx="200" cy="200" r="11" fill="#8B5A2B"/>
</g>
<ellipse cx="170" cy="188" rx="12" ry="7" fill="#FFD700"/>
<ellipse cx="170" cy="188" r="4" fill="#000"/>
<line x1="156" y1="180" x2="184" y2="180" stroke="#000" stroke-width="2"/>
<ellipse cx="230" cy="188" rx="12" ry="7" fill="#FFD700"/>
<ellipse cx="230" cy="188" r="4" fill="#000"/>
<line x1="216" y1="180" x2="244" y2="180" stroke="#000" stroke-width="2"/>
<path d="M188 220 Q200 212 212 220 L200 232 Z" fill="#3E2723"/>
<path d="M182 240 Q200 248 218 238" stroke="#3E2723" stroke-width="2" fill="none" stroke-linecap="round"/>
<line x1="170" y1="215" x2="130" y2="212" stroke="#3E2723" stroke-width="1" opacity="0.3"/>
<line x1="170" y1="225" x2="130" y2="222" stroke="#3E2723" stroke-width="1" opacity="0.3"/>
<line x1="230" y1="215" x2="270" y2="218" stroke="#3E2723" stroke-width="1" opacity="0.3"/>
<line x1="230" y1="225" x2="270" y2="228" stroke="#3E2723" stroke-width="1" opacity="0.3"/>
<rect x="154" y="176" width="28" height="18" rx="4" fill="#111" opacity="0.85"/>
<rect x="218" y="176" width="28" height="18" rx="4" fill="#111" opacity="0.85"/>
<line x1="182" y1="186" x2="218" y2="186" stroke="#333" stroke-width="2"/>
<line x1="154" y1="182" x2="140" y2="176" stroke="#333" stroke-width="2"/>
<line x1="246" y1="182" x2="260" y2="176" stroke="#333" stroke-width="2"/>
<polygon points="25.0,321.0 25.9,323.7 28.8,323.8 26.5,325.5 27.4,328.2 25.0,326.6 22.6,328.2 23.5,325.5 21.2,323.8 24.1,323.7" fill="#FFD700"/>
<polygon points="50.0,245.0 51.2,248.4 54.8,248.5 51.9,250.6 52.9,254.0 50.0,252.0 47.1,254.0 48.1,250.6 45.2,248.5 48.8,248.4" fill="#FFD700"/>
<polygon points="75.0,169.0 76.4,173.1 80.7,173.1 77.3,175.7 78.5,179.9 75.0,177.4 71.5,179.9 72.7,175.7 69.3,173.1 73.6,173.1" fill="#FFD700"/>
<polygon points="100.0,93.0 101.6,97.7 106.7,97.8 102.7,100.9 104.1,105.7 100.0,102.8 95.9,105.7 97.3,100.9 93.3,97.8 98.4,97.7" fill="#FFD700"/>
<polygon points="125.0,17.0 126.9,22.4 132.6,22.5 128.0,26.0 129.7,31.5 125.0,28.2 120.3,31.5 122.0,26.0 117.4,22.5 123.1,22.4" fill="#FFD700"/>
<polygon points="150.0,346.0 150.9,348.7 153.8,348.8 151.5,350.5 152.4,353.2 150.0,351.6 147.6,353.2 148.5,350.5 146.2,348.8 149.1,348.7" fill="#FFD700"/>
<polygon points="175.0,270.0 176.2,273.4 179.8,273.5 176.9,275.6 177.9,279.0 175.0,277.0 172.1,279.0 173.1,275.6 170.2,273.5 173.8,273.4" fill="#FFD700"/>
<polygon points="200.0,194.0 201.4,198.1 205.7,198.1 202.3,200.7 203.5,204.9 200.0,202.4 196.5,204.9 197.7,200.7 194.3,198.1 198.6,198.1" fill="#FFD700"/>
<polygon points="225.0,118.0 226.6,122.7 231.7,122.8 227.7,125.9 229.1,130.7 225.0,127.8 220.9,130.7 222.3,125.9 218.3,122.8 223.4,122.7" fill="#FFD700"/>
<polygon points="250.0,42.0 251.9,47.4 257.6,47.5 253.0,51.0 254.7,56.5 250.0,53.2 245.3,56.5 247.0,51.0 242.4,47.5 248.1,47.4" fill="#FFD700"/>
</svg>