<svg width="400" height="400" viewBox="0 0 400 400" xmlns="http://www.w3.org/2000/svg">
<defs>
<filter id="shadow" x="-20%" y="-20%" width="140%" height="140%"><feDropShadow dx="2" dy="4" stdDeviation="3" flood-opacity="0.3"/></filter>
<filter id="glow"><feGaussianBlur in="SourceGraphic" stdDeviation="8" result="blur"/><feMerge><feMergeNode in="blur"/><feMergeNode in="SourceGraphic"/></feMerge></filter>
<filter id="glow-strong"><feGaussianBlur in="SourceGraphic" stdDeviation="15" result="blur"/><feMerge><feMergeNode in="blur"/><feMergeNode in="blur"/><feMergeNode in="SourceGraphic"/></feMerge></filter>
<linearGradient id="bg-sky" x1="0%" y1="0%" x2="0%" y2="100%"><stop offset="0%" stop-color="#87CEEB"/><stop offset="100%" stop-color="#E0F4FF"/></linearGradient>
<linearGradient id="bg-sunset" x1="0%" y1="0%" x2="0%" y2="100%"><stop offset="0%" stop-color="#FF4500"/><stop offset="40%" stop-color="#FF8C00"/><stop offset="100%" stop-color="#FFD700"/></linearGradient>
<linearGradient id="bg-forest" x1="0%" y1="0%" x2="0%" y2="100%"><stop offset="0%" stop-color="#2D5016"/><stop offset="100%" stop-color="#4A7A2E"/></linearGradient>
<linearGradient id="bg-grass" x1="0%" y1="0%" x2="0%" y2="100%"><stop offset="0%" stop-color="#87CEEB"/><stop offset="60%" stop-color="#87CEEB"/><stop offset="60%" stop-color="#7CCD7C"/><stop offset="100%" stop-color="#4A8B3F"/></linearGradient>
<linearGradient id="bg-beach" x1="0%" y1="0%" x2="0%" y2="100%"><stop offset="0%" stop-color="#87CEEB"/><stop offset="50%" stop-color="#87CEEB"/><stop offset="50%" stop-color="#F4D03F"/><stop offset="100%" stop-color="#E8C430"/></linearGradient>
<linearGradient id="bg-space" x1="0%" y1="0%" x2="0%" y2="100%"><stop offset="0%" stop-color="#0B0B2B"/><stop offset="100%" stop-color="#1A1A4A"/></linearGradient>
<linearGradient id="bg-underwater" x1="0%" y1="0%" x2="0%" y2="100%"><stop offset="0%" stop-color="#006994"/><stop offset="100%" stop-color="#003050"/></linearGradient>
<linearGradient id="bg-volcano" x1="0%" y1="0%" x2="0%" y2="100%"><stop offset="0%" stop-color="#1A0A00"/><stop offset="60%" stop-color="#4A1A00"/><stop offset="100%" stop-color="#FF4500"/></linearGradient>
<linearGradient id="bg-aurora-bg" x1="0%" y1="0%" x2="100%" y2="100%"><stop offset="0%" stop-color="#0B1A30"/><stop offset="33%" stop-color="#1A4A3A"/><stop offset="66%" stop-color="#2A1A5A"/><stop offset="100%" stop-color="#0B1A30"/></linearGradient>
<linearGradient id="bg-multiverse" x1="0%" y1="0%" x2="100%" y2="100%"><stop offset="0%" stop-color="#FF006E"/><stop offset="25%" stop-color="#8338EC"/><stop offset="50%" stop-color="#3A86FF"/><stop offset="75%" stop-color="#06D6A0"/><stop offset="100%" stop-color="#FFD166"/></linearGradient>
<radialGradient id="bg-black-hole" cx="50%" cy="50%" r="50%"><stop offset="0%" stop-color="#000000"/><stop offset="60%" stop-color="#1A0530"/><stop offset="100%" stop-color="#4A1A70"/></radialGradient>
<linearGradient id="bg-dimension" x1="0%" y1="0%" x2="100%" y2="100%"><stop offset="0%" stop-color="#FF0080"/><stop offset="50%" stop-color="#0000FF"/><stop offset="100%" stop-color="#00FF80"/></linearGradient>
<linearGradient id="bg-heaven" x1="0%" y1="0%" x2="0%" y2="100%"><stop offset="0%" stop-color="#FFFDE0"/><stop offset="100%" stop-color="#FFF8E1"/></linearGradient>
<linearGradient id="bg-mountains" x1="0%" y1="0%" x2="0%" y2="100%"><stop offset="0%" stop-color="#87CEEB"/><stop offset="100%" stop-color="#B0C4DE"/></linearGradient>
<linearGradient id="bg-city" x1="0%" y1="0%" x2="0%" y2="100%"><stop offset="0%" stop-color="#1A1A2E"/><stop offset="100%" stop-color="#16213E"/></linearGradient>
<clipPath id="body-clip"><circle cx="200" cy="200" r="88"/></clipPath>
</defs>
<rect width="400" height="400" fill="url(#bg-city)"/>
<rect x="20" y="260" width="40" height="140" fill="#0F3460" opacity="0.7"/>
<rect x="25" y="270" width="5" height="8" fill="#1A1A2E" opacity="0.8"/>
<rect x="35" y="270" width="5" height="8" fill="#FFD700" opacity="0.8"/>
<rect x="45" y="270" width="5" height="8" fill="#FFD700" opacity="0.8"/>
<rect x="25" y="290" width="5" height="8" fill="#FFD700" opacity="0.8"/>
<rect x="35" y="290" width="5" height="8" fill="#1A1A2E" opacity="0.8"/>
<rect x="45" y="290" width="5" height="8" fill="#FFD700" opacity="0.8"/>
<rect x="25" y="310" width="5" height="8" fill="#FFD700" opacity="0.8"/>
<rect x="35" y="310" width="5" height="8" fill="#FFD700" opacity="0.8"/>
<rect x="45" y="310" width="5" height="8" fill="#1A1A2E" opacity="0.8"/>
<rect x="25" y="330" width="5" height="8" fill="#1A1A2E" opacity="0.8"/>
<rect x="35" y="330" width="5" height="8" fill="#FFD700" opacity="0.8"/>
<rect x="45" y="330" width="5" height="8" fill="#FFD700" opacity="0.8"/>
<rect x="25" y="350" width="5" height="8" fill="#FFD700" opacity="0.8"/>
<rect x="35" y="350" width="5" height="8" fill="#1A1A2E" opacity="0.8"/>
<rect x="45" y="350" width="5" height="8" fill="#FFD700" opacity="0.8"/>
<rect x="25" y="370" width="5" height="8" fill="#FFD700" opacity="0.8"/>
<rect x="35" y="370" width="5" height="8" fill="#FFD700" opacity="0.8"/>
<rect x="45" y="370" width="5" height="8" fill="#1A1A2E" opacity="0.8"/>
<rect x="60" y="220" width="35" height="180" fill="#0F3460" opacity="0.7"/>
<rect x="65" y="230" width="5" height="8" fill="#1A1A2E" opacity="0.8"/>
<rect x="75" y="230" width="5" height="8" fill="#FFD700" opacity="0.8"/>
<rect x="85" y="230" width="5" height="8" fill="#FFD700" opacity="0.8"/>
<rect x="65" y="250" width="5" height="8" fill="#FFD700" opacity="0.8"/>
<rect x="75" y="250" width="5" height="8" fill="#1A1A2E" opacity="0.8"/>
<rect x="85" y="250" width="5" height="8" fill="#FFD700" opacity="0.8"/>
<rect x="65" y="270" width="5" height="8" fill="#FFD700" opacity="0.8"/>
<rect x="75" y="270" width="5" height="8" fill="#FFD700" opacity="0.8"/>
<rect x="85" y="270" width="5" height="8" fill="#1A1A2E" opacity="0.8"/>
<rect x="65" y="290" width="5" height="8" fill="#1A1A2E" opacity="0.8"/>
<rect x="75" y="290" width="5" height="8" fill="#FFD700" opacity="0.8"/>
<rect x="85" y="290" width="5" height="8" fill="#FFD700" opacity="0.8"/>
<rect x="65" y="310" width="5" height="8" fill="#FFD700" opacity="0.8"/>
<rect x="75" y="310" width="5" height="8" fill="#1A1A2E" opacity="0.8"/>
<rect x="85" y="310" width="5" height="8" fill="#FFD700" opacity="0.8"/>
<rect x="65" y="330" width="5" height="8" fill="#FFD700" opacity="0.8"/>
<rect x="75" y="330" width="5" height="8" fill="#FFD700" opacity="0.8"/>
<rect x="85" y="330" width="5" height="8" fill="#1A1A2E" opacity="0.8"/>
<rect x="65" y="350" width="5" height="8" fill="#1A1A2E" opacity="0.8"/>
<rect x="75" y="350" width="5" height="8" fill="#FFD700" opacity="0.8"/>
<rect x="85" y="350" width="5" height="8" fill="#FFD700" opacity="0.8"/>
<rect x="65" y="370" width="5" height="8" fill="#FFD700" opacity="0.8"/>
<rect x="75" y="370" width="5" height="8" fill="#1A1A2E" opacity="0.8"/>
<rect x="85" y="370" width="5" height="8" fill="#FFD700" opacity="0.8"/>
<rect x="100" y="280" width="30" height="120" fill="#0F3460" opacity="0.7"/>
<rect x="105" y="290" width="5" height="8" fill="#FFD700" opacity="0.8"/>
<rect x="115" y="290" width="5" height="8" fill="#FFD700" opacity="0.8"/>
<rect x="105" y="310" width="5" height="8" fill="#1A1A2E" opacity="0.8"/>
<rect x="115" y="310" width="5" height="8" fill="#FFD700" opacity="0.8"/>
<rect x="105" y="330" width="5" height="8" fill="#FFD700" opacity="0.8"/>
<rect x="115" y="330" width="5" height="8" fill="#1A1A2E" opacity="0.8"/>
<rect x="105" y="350" width="5" height="8" fill="#FFD700" opacity="0.8"/>
<rect x="115" y="350" width="5" height="8" fill="#FFD700" opacity="0.8"/>
<rect x="105" y="370" width="5" height="8" fill="#1A1A2E" opacity="0.8"/>
<rect x="115" y="370" width="5" height="8" fill="#FFD700" opacity="0.8"/>
<rect x="140" y="200" width="40" height="200" fill="#0F3460" opacity="0.7"/>
<rect x="145" y="210" width="5" height="8" fill="#1A1A2E" opacity="0.8"/>
<rect x="155" y="210" width="5" height="8" fill="#FFD700" opacity="0.8"/>
<rect x="165" y="210" width="5" height="8" fill="#FFD700" opacity="0.8"/>
<rect x="145" y="230" width="5" height="8" fill="#FFD700" opacity="0.8"/>
<rect x="155" y="230" width="5" height="8" fill="#1A1A2E" opacity="0.8"/>
<rect x="165" y="230" width="5" height="8" fill="#FFD700" opacity="0.8"/>
<rect x="145" y="250" width="5" height="8" fill="#FFD700" opacity="0.8"/>
<rect x="155" y="250" width="5" height="8" fill="#FFD700" opacity="0.8"/>
<rect x="165" y="250" width="5" height="8" fill="#1A1A2E" opacity="0.8"/>
<rect x="145" y="270" width="5" height="8" fill="#1A1A2E" opacity="0.8"/>
<rect x="155" y="270" width="5" height="8" fill="#FFD700" opacity="0.8"/>
<rect x="165" y="270" width="5" height="8" fill="#FFD700" opacity="0.8"/>
<rect x="145" y="290" width="5" height="8" fill="#FFD700" opacity="0.8"/>
<rect x="155" y="290" width="5" height="8" fill="#1A1A2E" opacity="0.8"/>
<rect x="165" y="290" width="5" height="8" fill="#FFD700" opacity="0.8"/>
<rect x="145" y="310" width="5" height="8" fill="#FFD700" opacity="0.8"/>
<rect x="155" y="310" width="5" height="8" fill="#FFD700" opacity="0.8"/>
<rect x="165" y="310" width="5" height="8" fill="#1A1A2E" opacity="0.8"/>
<rect x="145" y="330" width="5" height="8" fill="#1A1A2E" opacity="0.8"/>
<rect x="155" y="330" width="5" height="8" fill="#FFD700" opacity="0.8"/>
<rect x="165" y="330" width="5" height="8" fill="#FFD700" opacity="0.8"/>
<rect x="145" y="350" width="5" height="8" fill="#FFD700" opacity="0.8"/>
<rect x="155" y="350" width="5" height="8" fill="#1A1A2E" opacity="0.8"/>
<rect x="165" y="350" width="5" height="8" fill="#FFD700" opacity="0.8"/>
<rect x="145" y="370" width="5" height="8" fill="#FFD700" opacity="0.8"/>
<rect x="155" y="370" width="5" height="8" fill="#FFD700" opacity="0.8"/>
<rect x="165" y="370" width="5" height="8" fill="#1A1A2E" opacity="0.8"/>
<rect x="180" y="250" width="35" height="150" fill="#0F3460" opacity="0.7"/>
<rect x="185" y="260" width="5" height="8" fill="#1A1A2E" opacity="0.8"/>
<rect x="195" y="260" width="5" height="8" fill="#FFD700" opacity="0.8"/>
<rect x="205" y="260" width="5" height="8" fill="#FFD700" opacity="0.8"/>
<rect x="185" y="280" width="5" height="8" fill="#FFD700" opacity="0.8"/>
<rect x="195" y="280" width="5" height="8" fill="#1A1A2E" opacity="0.8"/>
<rect x="205" y="280" width="5" height="8" fill="#FFD700" opacity="0.8"/>
<rect x="185" y="300" width="5" height="8" fill="#FFD700" opacity="0.8"/>
<rect x="195" y="300" width="5" height="8" fill="#FFD700" opacity="0.8"/>
<rect x="205" y="300" width="5" height="8" fill="#1A1A2E" opacity="0.8"/>
<rect x="185" y="320" width="5" height="8" fill="#1A1A2E" opacity="0.8"/>
<rect x="195" y="320" width="5" height="8" fill="#FFD700" opacity="0.8"/>
<rect x="205" y="320" width="5" height="8" fill="#FFD700" opacity="0.8"/>
<rect x="185" y="340" width="5" height="8" fill="#FFD700" opacity="0.8"/>
<rect x="195" y="340" width="5" height="8" fill="#1A1A2E" opacity="0.8"/>
<rect x="205" y="340" width="5" height="8" fill="#FFD700" opacity="0.8"/>
<rect x="185" y="360" width="5" height="8" fill="#FFD700" opacity="0.8"/>
<rect x="195" y="360" width="5" height="8" fill="#FFD700" opacity="0.8"/>
<rect x="205" y="360" width="5" height="8" fill="#1A1A2E" opacity="0.8"/>
<rect x="185" y="380" width="5" height="8" fill="#1A1A2E" opacity="0.8"/>
<rect x="195" y="380" width="5" height="8" fill="#FFD700" opacity="0.8"/>
<rect x="205" y="380" width="5" height="8" fill="#FFD700" opacity="0.8"/>
<rect x="220" y="210" width="30" height="190" fill="#0F3460" opacity="0.7"/>
<rect x="225" y="220" width="5" height="8" fill="#1A1A2E" opacity="0.8"/>
<rect x="235" y="220" width="5" height="8" fill="#FFD700" opacity="0.8"/>
<rect x="225" y="240" width="5" height="8" fill="#FFD700" opacity="0.8"/>
<rect x="235" y="240" width="5" height="8" fill="#1A1A2E" opacity="0.8"/>
<rect x="225" y="260" width="5" height="8" fill="#FFD700" opacity="0.8"/>
<rect x="235" y="260" width="5" height="8" fill="#FFD700" opacity="0.8"/>
<rect x="225" y="280" width="5" height="8" fill="#1A1A2E" opacity="0.8"/>
<rect x="235" y="280" width="5" height="8" fill="#FFD700" opacity="0.8"/>
<rect x="225" y="300" width="5" height="8" fill="#FFD700" opacity="0.8"/>
<rect x="235" y="300" width="5" height="8" fill="#1A1A2E" opacity="0.8"/>
<rect x="225" y="320" width="5" height="8" fill="#FFD700" opacity="0.8"/>
<rect x="235" y="320" width="5" height="8" fill="#FFD700" opacity="0.8"/>
<rect x="225" y="340" width="5" height="8" fill="#1A1A2E" opacity="0.8"/>
<rect x="235" y="340" width="5" height="8" fill="#FFD700" opacity="0.8"/>
<rect x="225" y="360" width="5" height="8" fill="#FFD700" opacity="0.8"/>
<rect x="235" y="360" width="5" height="8" fill="#1A1A2E" opacity="0.8"/>
<rect x="225" y="380" width="5" height="8" fill="#FFD700" opacity="0.8"/>
<rect x="235" y="380" width="5" height="8" fill="#FFD700" opacity="0.8"/>
<rect x="260" y="270" width="40" height="130" fill="#0F3460" opacity="0.7"/>
<rect x="265" y="280" width="5" height="8" fill="#FFD700" opacity="0.8"/>
<rect x="275" y="280" width="5" height="8" fill="#FFD700" opacity="0.8"/>
<rect x="285" y="280" width="5" height="8" fill="#1A1A2E" opacity="0.8"/>
<rect x="265" y="300" width="5" height="8" fill="#1A1A2E" opacity="0.8"/>
<rect x="275" y="300" width="5" height="8" fill="#FFD700" opacity="0.8"/>
<rect x="285" y="300" width="5" height="8" fill="#FFD700" opacity="0.8"/>
<rect x="265" y="320" width="5" height="8" fill="#FFD700" opacity="0.8"/>
<rect x="275" y="320" width="5" height="8" fill="#1A1A2E" opacity="0.8"/>
<rect x="285" y="320" width="5" height="8" fill="#FFD700" opacity="0.8"/>
<rect x="265" y="340" width="5" height="8" fill="#FFD700" opacity="0.8"/>
<rect x="275" y="340" width="5" height="8" fill="#FFD700" opacity="0.8"/>
<rect x="285" y="340" width="5" height="8" fill="#1A1A2E" opacity="0.8"/>
<rect x="265" y="360" width="5" height="8" fill="#1A1A2E" opacity="0.8"/>
<rect x="275" y="360" width="5" height="8" fill="#FFD700" opacity="0.8"/>
<rect x="285" y="360" width="5" height="8" fill="#FFD700" opacity="0.8"/>
<rect x="265" y="380" width="5" height="8" fill="#FFD700" opacity="0.8"/>
<rect x="275" y="380" width="5" height="8" fill="#1A1A2E" opacity="0.8"/>
<rect x="285" y="380" width="5" height="8" fill="#FFD700" opacity="0.8"/>
<rect x="300" y="230" width="35" height="170" fill="#0F3460" opacity="0.7"/>
<rect x="305" y="240" width="5" height="8" fill="#FFD700" opacity="0.8"/>
<rect x="315" y="240" width="5" height="8" fill="#FFD700" opacity="0.8"/>
<rect x="325" y="240" width="5" height="8" fill="#1A1A2E" opacity="0.8"/>
<rect x="305" y="260" width="5" height="8" fill="#1A1A2E" opacity="0.8"/>
<rect x="315" y="260" width="5" height="8" fill="#FFD700" opacity="0.8"/>
<rect x="325" y="260" width="5" height="8" fill="#FFD700" opacity="0.8"/>
<rect x="305" y="280" width="5" height="8" fill="#FFD700" opacity="0.8"/>
<rect x="315" y="280" width="5" height="8" fill="#1A1A2E" opacity="0.8"/>
<rect x="325" y="280" width="5" height="8" fill="#FFD700" opacity="0.8"/>
<rect x="305" y="300" width="5" height="8" fill="#FFD700" opacity="0.8"/>
<rect x="315" y="300" width="5" height="8" fill="#FFD700" opacity="0.8"/>
<rect x="325" y="300" width="5" height="8" fill="#1A1A2E" opacity="0.8"/>
<rect x="305" y="320" width="5" height="8" fill="#1A1A2E" opacity="0.8"/>
<rect x="315" y="320" width="5" height="8" fill="#FFD700" opacity="0.8"/>
<rect x="325" y="320" width="5" height="8" fill="#FFD700" opacity="0.8"/>
<rect x="305" y="340" width="5" height="8" fill="#FFD700" opacity="0.8"/>
<rect x="315" y="340" width="5" height="8" fill="#1A1A2E" opacity="0.8"/>
<rect x="325" y="340" width="5" height="8" fill="#FFD700" opacity="0.8"/>
<rect x="305" y="360" width="5" height="8" fill="#FFD700" opacity="0.8"/>
<rect x="315" y="360" width="5" height="8" fill="#FFD700" opacity="0.8"/>
<rect x="325" y="360" width="5" height="8" fill="#1A1A2E" opacity="0.8"/>
<rect x="305" y="380" width="5" height="8" fill="#1A1A2E" opacity="0.8"/>
<rect x="315" y="380" width="5" height="8" fill="#FFD700" opacity="0.8"/>
<rect x="325" y="380" width="5" height="8" fill="#FFD700" opacity="0.8"/>
<rect x="340" y="240" width="30" height="160" fill="#0F3460" opacity="0.7"/>
<rect x="345" y="250" width="5" height="8" fill="#1A1A2E" opacity="0.8"/>
<rect x="355" y="250" width="5" height="8" fill="#FFD700" opacity="0.8"/>
<rect x="345" y="270" width="5" height="8" fill="#FFD700" opacity="0.8"/>
<rect x="355" y="270" width="5" height="8" fill="#1A1A2E" opacity="0.8"/>
<rect x="345" y="290" width="5" height="8" fill="#FFD700" opacity="0.8"/>
<rect x="355" y="290" width="5" height="8" fill="#FFD700" opacity="0.8"/>
<rect x="345" y="310" width="5" height="8" fill="#1A1A2E" opacity="0.8"/>
<rect x="355" y="310" width="5" height="8" fill="#FFD700" opacity="0.8"/>
<rect x="345" y="330" width="5" height="8" fill="#FFD700" opacity="0.8"/>
<rect x="355" y="330" width="5" height="8" fill="#1A1A2E" opacity="0.8"/>
<rect x="345" y="350" width="5" height="8" fill="#FFD700" opacity="0.8"/>
<rect x="355" y="350" width="5" height="8" fill="#FFD700" opacity="0.8"/>
<rect x="345" y="370" width="5" height="8" fill="#1A1A2E" opacity="0.8"/>
<rect x="355" y="370" width="5" height="8" fill="#FFD700" opacity="0.8"/>
<rect x="370" y="260" width="30" height="140" fill="#0F3460" opacity="0.7"/>
<rect x="375" y="270" width="5" height="8" fill="#FFD700" opacity="0.8"/>
<rect x="385" y="270" width="5" height="8" fill="#1A1A2E" opacity="0.8"/>
<rect x="375" y="290" width="5" height="8" fill="#FFD700" opacity="0.8"/>
<rect x="385" y="290" width="5" height="8" fill="#FFD700" opacity="0.8"/>
<rect x="375" y="310" width="5" height="8" fill="#1A1A2E" opacity="0.8"/>
<rect x="385" y="310" width="5" height="8" fill="#FFD700" opacity="0.8"/>
<rect x="375" y="330" width="5" height="8" fill="#FFD700" opacity="0.8"/>
<rect x="385" y="330" width="5" height="8" fill="#1A1A2E" opacity="0.8"/>
<rect x="375" y="350" width="5" height="8" fill="#FFD700" opacity="0.8"/>
<rect x="385" y="350" width="5" height="8" fill="#FFD700" opacity="0.8"/>
<rect x="375" y="370" width="5" height="8" fill="#1A1A2E" opacity="0.8"/>
<rect x="385" y="370" width="5" height="8" fill="#FFD700" opacity="0.8"/>
<ellipse cx="200" cy="200" rx="130" ry="60" fill="#B8860B" transform="rotate(0.0 200 200)" opacity="0.75"/>
<ellipse cx="200" cy="200" rx="137" ry="56" fill="#B8860B" transform="rotate(22.5 200 200)" opacity="0.75"/>
<ellipse cx="200" cy="200" rx="144" ry="67" fill="#B8860B" transform="rotate(45.0 200 200)" opacity="0.75"/>
<ellipse cx="200" cy="200" rx="131" ry="63" fill="#B8860B" transform="rotate(67.5 200 200)" opacity="0.75"/>
<ellipse cx="200" cy="200" rx="138" ry="59" fill="#B8860B" transform="rotate(90.0 200 200)" opacity="0.75"/>
<ellipse cx="200" cy="200" rx="145" ry="55" fill="#B8860B" transform="rotate(112.5 200 200)" opacity="0.75"/>
<ellipse cx="200" cy="200" rx="132" ry="66" fill="#B8860B" transform="rotate(135.0 200 200)" opacity="0.75"/>
<ellipse cx="200" cy="200" rx="139" ry="62" fill="#B8860B" transform="rotate(157.5 200 200)" opacity="0.75"/>
<ellipse cx="200" cy="200" rx="146" ry="58" fill="#B8860B" transform="rotate(180.0 200 200)" opacity="0.75"/>
<ellipse cx="200" cy="200" rx="133" ry="69" fill="#B8860B" transform="rotate(202.5 200 200)" opacity="0.75"/>
<ellipse cx="200" cy="200" rx="140" ry="65" fill="#B8860B" transform="rotate(225.0 200 200)" opacity="0.75"/>
<ellipse cx="200" cy="200" rx="147" ry="61" fill="#B8860B" transform="rotate(247.5 200 200)" opacity="0.75"/>
<ellipse cx="200" cy="200" rx="134" ry="57" fill="#B8860B" transform="rotate(270.0 200 200)" opacity="0.75"/>
<ellipse cx="200" cy="200" rx="141" ry="68" fill="#B8860B" transform="rotate(292.5 200 200)" opacity="0.75"/>
<ellipse cx="200" cy="200" rx="148" ry="64" fill="#B8860B" transform="rotate(315.0 200 200)" opacity="0.75"/>
<ellipse cx="200" cy="200" rx="135" ry="60" fill="#B8860B" transform="rotate(337.5 200 200)" opacity="0.75"/>
<circle cx="200" cy="200" r="110" fill="#8B6508" opacity="0.5"/>
<circle cx="132" cy="132" r="22" fill="#DAA520"/>
<circle cx="132" cy="132" r="12" fill="#FFD700" opacity="0.5"/>
<circle cx="268" cy="132" r="22" fill="#DAA520"/>
<circle cx="268" cy="132" r="12" fill="#FFD700" opacity="0.5"/>
<circle cx="200" cy="200" r="90" fill="#DAA520" filter="url(#shadow)"/>
<ellipse cx="200" cy="230" rx="48" ry="38" fill="#FFD700" opacity="0.5"/>
<g clip-path="url(#body-clip)" opacity="0.3">
<circle cx="160" cy="240" r="9" fill="#B8860B"/>
<circle cx="180" cy="220" r="10" fill="#B8860B"/>
<circle cx="200" cy="200" r="11" fill="#B8860B"/>
<circle cx="220" cy="180" r="12" fill="#B8860B"/>
<circle cx="240" cy="160" r="5" fill="#B8860B"/>
<circle cx="140" cy="140" r="6" fill="#B8860B"/>
<circle cx="160" cy="240" r="7" fill="#B8860B"/>
<circle cx="180" cy="220" r="8" fill="#B8860B"/>
<circle cx="200" cy="200" r="9" fill="#B8860B"/>
<circle cx="220" cy="180" r="10" fill="#B8860B"/>
<circle cx="240" cy="160" r="11" fill="#B8860B"/>
<circle cx="140" cy="140" r="12" fill="#B8860B"/>
</g>
<ellipse cx="170" cy="188" rx="12" ry="7" fill="#FFD700"/>
<ellipse cx="170" cy="188" r="4" fill="#000"/>
<line x1="156" y1="180" x2="184" y2="180" stroke="#000" stroke-width="2"/>
<ellipse cx="230" cy="188" rx="12" ry="7" fill="#FFD700"/>
<ellipse cx="230" cy="188" r="4" fill="#000"/>
<line x1="216" y1="180" x2="244" y2="180" stroke="#000" stroke-width="2"/>
<path d="M188 220 Q200 212 212 220 L200 232 Z" fill="#3E2723"/>
<path d="M182 240 Q200 248 218 238" stroke="#3E2723" stroke-width="2" fill="none" stroke-linecap="round"/>
<line x1="170" y1="215" x2="130" y2="212" stroke="#3E2723" stroke-width="1" opacity="0.3"/>
<line x1="170" y1="225" x2="130" y2="222" stroke="#3E2723" stroke-width="1" opacity="0.3"/>
<line x1="230" y1="215" x2="270" y2="218" stroke="#3E2723" stroke-width="1" opacity="0.3"/>
<line x1="230" y1="225" x2="270" y2="228" stroke="#3E2723" stroke-width="1" opacity="0.3"/>
<rect x="154" y="176" width="28" height="18" rx="4" fill="#111" opacity="0.85"/>
<rect x="218" y="176" width="28" height="18" rx="4" fill="#111" opacity="0.85"/>
<line x1="182" y1="186" x2="218" y2="186" stroke="#333" stroke-width="2"/>
<line x1="154" y1="182" x2="140" y2="176" stroke="#333" stroke-width="2"/>
<line x1="246" y1="182" x2="260" y2="176" stroke="#333" stroke-width="2"/>
<polygon points="260.0,16.0 260.9,18.7 263.8,18.8 261.5,20.5 262.4,23.2 260.0,21.6 257.6,23.2 258.5,20.5 256.2,18.8 259.1,18.7" fill="#FFD700"/>
<polygon points="120.0,35.0 121.2,38.4 124.8,38.5 121.9,40.6 122.9,44.0 120.0,42.0 117.1,44.0 118.1,40.6 115.2,38.5 118.8,38.4" fill="#FFD700"/>
<polygon points="380.0,54.0 381.4,58.1 385.7,58.1 382.3,60.7 383.5,64.9 380.0,62.4 376.5,64.9 377.7,60.7 374.3,58.1 378.6,58.1" fill="#FFD700"/>
<polygon points="240.0,73.0 241.6,77.7 246.7,77.8 242.7,80.9 244.1,85.7 240.0,82.8 235.9,85.7 237.3,80.9 233.3,77.8 238.4,77.7" fill="#FFD700"/>
<polygon points="100.0,92.0 101.9,97.4 107.6,97.5 103.0,101.0 104.7,106.5 100.0,103.2 95.3,106.5 97.0,101.0 92.4,97.5 98.1,97.4" fill="#FFD700"/>
<polygon points="360.0,116.0 360.9,118.7 363.8,118.8 361.5,120.5 362.4,123.2 360.0,121.6 357.6,123.2 358.5,120.5 356.2,118.8 359.1,118.7" fill="#FFD700"/>
<polygon points="220.0,135.0 221.2,138.4 224.8,138.5 221.9,140.6 222.9,144.0 220.0,142.0 217.1,144.0 218.1,140.6 215.2,138.5 218.8,138.4" fill="#FFD700"/>
<polygon points="80.0,154.0 81.4,158.1 85.7,158.1 82.3,160.7 83.5,164.9 80.0,162.4 76.5,164.9 77.7,160.7 74.3,158.1 78.6,158.1" fill="#FFD700"/>
<polygon points="340.0,173.0 341.6,177.7 346.7,177.8 342.7,180.9 344.1,185.7 340.0,182.8 335.9,185.7 337.3,180.9 333.3,177.8 338.4,177.7" fill="#FFD700"/>
<polygon points="200.0,192.0 201.9,197.4 207.6,197.5 203.0,201.0 204.7,206.5 200.0,203.2 195.3,206.5 197.0,201.0 192.4,197.5 198.1,197.4" fill="#FFD700"/>
</svg>