<svg width="400" height="400" viewBox="0 0 400 400" xmlns="http://www.w3.org/2000/svg">
<defs>
<filter id="shadow" x="-20%" y="-20%" width="140%" height="140%"><feDropShadow dx="2" dy="4" stdDeviation="3" flood-opacity="0.3"/></filter>
<filter id="glow"><feGaussianBlur in="SourceGraphic" stdDeviation="8" result="blur"/><feMerge><feMergeNode in="blur"/><feMergeNode in="SourceGraphic"/></feMerge></filter>
<filter id="glow-strong"><feGaussianBlur in="SourceGraphic" stdDeviation="15" result="blur"/><feMerge><feMergeNode in="blur"/><feMergeNode in="blur"/><feMergeNode in="SourceGraphic"/></feMerge></filter>
<linearGradient id="bg-sky" x1="0%" y1="0%" x2="0%" y2="100%"><stop offset="0%" stop-color="#87CEEB"/><stop offset="100%" stop-color="#E0F4FF"/></linearGradient>
<linearGradient id="bg-sunset" x1="0%" y1="0%" x2="0%" y2="100%"><stop offset="0%" stop-color="#FF4500"/><stop offset="40%" stop-color="#FF8C00"/><stop offset="100%" stop-color="#FFD700"/></linearGradient>
<linearGradient id="bg-forest" x1="0%" y1="0%" x2="0%" y2="100%"><stop offset="0%" stop-color="#2D5016"/><stop offset="100%" stop-color="#4A7A2E"/></linearGradient>
<linearGradient id="bg-grass" x1="0%" y1="0%" x2="0%" y2="100%"><stop offset="0%" stop-color="#87CEEB"/><stop offset="60%" stop-color="#87CEEB"/><stop offset="60%" stop-color="#7CCD7C"/><stop offset="100%" stop-color="#4A8B3F"/></linearGradient>
<linearGradient id="bg-beach" x1="0%" y1="0%" x2="0%" y2="100%"><stop offset="0%" stop-color="#87CEEB"/><stop offset="50%" stop-color="#87CEEB"/><stop offset="50%" stop-color="#F4D03F"/><stop offset="100%" stop-color="#E8C430"/></linearGradient>
<linearGradient id="bg-space" x1="0%" y1="0%" x2="0%" y2="100%"><stop offset="0%" stop-color="#0B0B2B"/><stop offset="100%" stop-color="#1A1A4A"/></linearGradient>
<linearGradient id="bg-underwater" x1="0%" y1="0%" x2="0%" y2="100%"><stop offset="0%" stop-color="#006994"/><stop offset="100%" stop-color="#003050"/></linearGradient>
<linearGradient id="bg-volcano" x1="0%" y1="0%" x2="0%" y2="100%"><stop offset="0%" stop-color="#1A0A00"/><stop offset="60%" stop-color="#4A1A00"/><stop offset="100%" stop-color="#FF4500"/></linearGradient>
<linearGradient id="bg-aurora-bg" x1="0%" y1="0%" x2="100%" y2="100%"><stop offset="0%" stop-color="#0B1A30"/><stop offset="33%" stop-color="#1A4A3A"/><stop offset="66%" stop-color="#2A1A5A"/><stop offset="100%" stop-color="#0B1A30"/></linearGradient>
<linearGradient id="bg-multiverse" x1="0%" y1="0%" x2="100%" y2="100%"><stop offset="0%" stop-color="#FF006E"/><stop offset="25%" stop-color="#8338EC"/><stop offset="50%" stop-color="#3A86FF"/><stop offset="75%" stop-color="#06D6A0"/><stop offset="100%" stop-color="#FFD166"/></linearGradient>
<radialGradient id="bg-black-hole" cx="50%" cy="50%" r="50%"><stop offset="0%" stop-color="#000000"/><stop offset="60%" stop-color="#1A0530"/><stop offset="100%" stop-color="#4A1A70"/></radialGradient>
<linearGradient id="bg-dimension" x1="0%" y1="0%" x2="100%" y2="100%"><stop offset="0%" stop-color="#FF0080"/><stop offset="50%" stop-color="#0000FF"/><stop offset="100%" stop-color="#00FF80"/></linearGradient>
<linearGradient id="bg-heaven" x1="0%" y1="0%" x2="0%" y2="100%"><stop offset="0%" stop-color="#FFFDE0"/><stop offset="100%" stop-color="#FFF8E1"/></linearGradient>
<linearGradient id="bg-mountains" x1="0%" y1="0%" x2="0%" y2="100%"><stop offset="0%" stop-color="#87CEEB"/><stop offset="100%" stop-color="#B0C4DE"/></linearGradient>
<linearGradient id="bg-city" x1="0%" y1="0%" x2="0%" y2="100%"><stop offset="0%" stop-color="#1A1A2E"/><stop offset="100%" stop-color="#16213E"/></linearGradient>
<clipPath id="body-clip"><circle cx="200" cy="200" r="88"/></clipPath>
</defs>
<rect width="400" height="400" fill="url(#bg-city)"/>
<rect x="20" y="260" width="38" height="140" fill="#0F3460" opacity="0.7"/>
<rect x="25" y="270" width="5" height="8" fill="#FFD700" opacity="0.8"/>
<rect x="35" y="270" width="5" height="8" fill="#FFD700" opacity="0.8"/>
<rect x="45" y="270" width="5" height="8" fill="#1A1A2E" opacity="0.8"/>
<rect x="25" y="290" width="5" height="8" fill="#1A1A2E" opacity="0.8"/>
<rect x="35" y="290" width="5" height="8" fill="#FFD700" opacity="0.8"/>
<rect x="45" y="290" width="5" height="8" fill="#FFD700" opacity="0.8"/>
<rect x="25" y="310" width="5" height="8" fill="#FFD700" opacity="0.8"/>
<rect x="35" y="310" width="5" height="8" fill="#1A1A2E" opacity="0.8"/>
<rect x="45" y="310" width="5" height="8" fill="#FFD700" opacity="0.8"/>
<rect x="25" y="330" width="5" height="8" fill="#FFD700" opacity="0.8"/>
<rect x="35" y="330" width="5" height="8" fill="#FFD700" opacity="0.8"/>
<rect x="45" y="330" width="5" height="8" fill="#1A1A2E" opacity="0.8"/>
<rect x="25" y="350" width="5" height="8" fill="#1A1A2E" opacity="0.8"/>
<rect x="35" y="350" width="5" height="8" fill="#FFD700" opacity="0.8"/>
<rect x="45" y="350" width="5" height="8" fill="#FFD700" opacity="0.8"/>
<rect x="25" y="370" width="5" height="8" fill="#FFD700" opacity="0.8"/>
<rect x="35" y="370" width="5" height="8" fill="#1A1A2E" opacity="0.8"/>
<rect x="45" y="370" width="5" height="8" fill="#FFD700" opacity="0.8"/>
<rect x="60" y="220" width="33" height="180" fill="#0F3460" opacity="0.7"/>
<rect x="65" y="230" width="5" height="8" fill="#FFD700" opacity="0.8"/>
<rect x="75" y="230" width="5" height="8" fill="#FFD700" opacity="0.8"/>
<rect x="85" y="230" width="5" height="8" fill="#1A1A2E" opacity="0.8"/>
<rect x="65" y="250" width="5" height="8" fill="#1A1A2E" opacity="0.8"/>
<rect x="75" y="250" width="5" height="8" fill="#FFD700" opacity="0.8"/>
<rect x="85" y="250" width="5" height="8" fill="#FFD700" opacity="0.8"/>
<rect x="65" y="270" width="5" height="8" fill="#FFD700" opacity="0.8"/>
<rect x="75" y="270" width="5" height="8" fill="#1A1A2E" opacity="0.8"/>
<rect x="85" y="270" width="5" height="8" fill="#FFD700" opacity="0.8"/>
<rect x="65" y="290" width="5" height="8" fill="#FFD700" opacity="0.8"/>
<rect x="75" y="290" width="5" height="8" fill="#FFD700" opacity="0.8"/>
<rect x="85" y="290" width="5" height="8" fill="#1A1A2E" opacity="0.8"/>
<rect x="65" y="310" width="5" height="8" fill="#1A1A2E" opacity="0.8"/>
<rect x="75" y="310" width="5" height="8" fill="#FFD700" opacity="0.8"/>
<rect x="85" y="310" width="5" height="8" fill="#FFD700" opacity="0.8"/>
<rect x="65" y="330" width="5" height="8" fill="#FFD700" opacity="0.8"/>
<rect x="75" y="330" width="5" height="8" fill="#1A1A2E" opacity="0.8"/>
<rect x="85" y="330" width="5" height="8" fill="#FFD700" opacity="0.8"/>
<rect x="65" y="350" width="5" height="8" fill="#FFD700" opacity="0.8"/>
<rect x="75" y="350" width="5" height="8" fill="#FFD700" opacity="0.8"/>
<rect x="85" y="350" width="5" height="8" fill="#1A1A2E" opacity="0.8"/>
<rect x="65" y="370" width="5" height="8" fill="#1A1A2E" opacity="0.8"/>
<rect x="75" y="370" width="5" height="8" fill="#FFD700" opacity="0.8"/>
<rect x="85" y="370" width="5" height="8" fill="#FFD700" opacity="0.8"/>
<rect x="100" y="280" width="43" height="120" fill="#0F3460" opacity="0.7"/>
<rect x="105" y="290" width="5" height="8" fill="#FFD700" opacity="0.8"/>
<rect x="115" y="290" width="5" height="8" fill="#1A1A2E" opacity="0.8"/>
<rect x="125" y="290" width="5" height="8" fill="#FFD700" opacity="0.8"/>
<rect x="135" y="290" width="5" height="8" fill="#FFD700" opacity="0.8"/>
<rect x="105" y="310" width="5" height="8" fill="#FFD700" opacity="0.8"/>
<rect x="115" y="310" width="5" height="8" fill="#FFD700" opacity="0.8"/>
<rect x="125" y="310" width="5" height="8" fill="#1A1A2E" opacity="0.8"/>
<rect x="135" y="310" width="5" height="8" fill="#FFD700" opacity="0.8"/>
<rect x="105" y="330" width="5" height="8" fill="#1A1A2E" opacity="0.8"/>
<rect x="115" y="330" width="5" height="8" fill="#FFD700" opacity="0.8"/>
<rect x="125" y="330" width="5" height="8" fill="#FFD700" opacity="0.8"/>
<rect x="135" y="330" width="5" height="8" fill="#1A1A2E" opacity="0.8"/>
<rect x="105" y="350" width="5" height="8" fill="#FFD700" opacity="0.8"/>
<rect x="115" y="350" width="5" height="8" fill="#1A1A2E" opacity="0.8"/>
<rect x="125" y="350" width="5" height="8" fill="#FFD700" opacity="0.8"/>
<rect x="135" y="350" width="5" height="8" fill="#FFD700" opacity="0.8"/>
<rect x="105" y="370" width="5" height="8" fill="#FFD700" opacity="0.8"/>
<rect x="115" y="370" width="5" height="8" fill="#FFD700" opacity="0.8"/>
<rect x="125" y="370" width="5" height="8" fill="#1A1A2E" opacity="0.8"/>
<rect x="135" y="370" width="5" height="8" fill="#FFD700" opacity="0.8"/>
<rect x="140" y="200" width="38" height="200" fill="#0F3460" opacity="0.7"/>
<rect x="145" y="210" width="5" height="8" fill="#FFD700" opacity="0.8"/>
<rect x="155" y="210" width="5" height="8" fill="#FFD700" opacity="0.8"/>
<rect x="165" y="210" width="5" height="8" fill="#1A1A2E" opacity="0.8"/>
<rect x="145" y="230" width="5" height="8" fill="#1A1A2E" opacity="0.8"/>
<rect x="155" y="230" width="5" height="8" fill="#FFD700" opacity="0.8"/>
<rect x="165" y="230" width="5" height="8" fill="#FFD700" opacity="0.8"/>
<rect x="145" y="250" width="5" height="8" fill="#FFD700" opacity="0.8"/>
<rect x="155" y="250" width="5" height="8" fill="#1A1A2E" opacity="0.8"/>
<rect x="165" y="250" width="5" height="8" fill="#FFD700" opacity="0.8"/>
<rect x="145" y="270" width="5" height="8" fill="#FFD700" opacity="0.8"/>
<rect x="155" y="270" width="5" height="8" fill="#FFD700" opacity="0.8"/>
<rect x="165" y="270" width="5" height="8" fill="#1A1A2E" opacity="0.8"/>
<rect x="145" y="290" width="5" height="8" fill="#1A1A2E" opacity="0.8"/>
<rect x="155" y="290" width="5" height="8" fill="#FFD700" opacity="0.8"/>
<rect x="165" y="290" width="5" height="8" fill="#FFD700" opacity="0.8"/>
<rect x="145" y="310" width="5" height="8" fill="#FFD700" opacity="0.8"/>
<rect x="155" y="310" width="5" height="8" fill="#1A1A2E" opacity="0.8"/>
<rect x="165" y="310" width="5" height="8" fill="#FFD700" opacity="0.8"/>
<rect x="145" y="330" width="5" height="8" fill="#FFD700" opacity="0.8"/>
<rect x="155" y="330" width="5" height="8" fill="#FFD700" opacity="0.8"/>
<rect x="165" y="330" width="5" height="8" fill="#1A1A2E" opacity="0.8"/>
<rect x="145" y="350" width="5" height="8" fill="#1A1A2E" opacity="0.8"/>
<rect x="155" y="350" width="5" height="8" fill="#FFD700" opacity="0.8"/>
<rect x="165" y="350" width="5" height="8" fill="#FFD700" opacity="0.8"/>
<rect x="145" y="370" width="5" height="8" fill="#FFD700" opacity="0.8"/>
<rect x="155" y="370" width="5" height="8" fill="#1A1A2E" opacity="0.8"/>
<rect x="165" y="370" width="5" height="8" fill="#FFD700" opacity="0.8"/>
<rect x="180" y="250" width="33" height="150" fill="#0F3460" opacity="0.7"/>
<rect x="185" y="260" width="5" height="8" fill="#FFD700" opacity="0.8"/>
<rect x="195" y="260" width="5" height="8" fill="#FFD700" opacity="0.8"/>
<rect x="205" y="260" width="5" height="8" fill="#1A1A2E" opacity="0.8"/>
<rect x="185" y="280" width="5" height="8" fill="#1A1A2E" opacity="0.8"/>
<rect x="195" y="280" width="5" height="8" fill="#FFD700" opacity="0.8"/>
<rect x="205" y="280" width="5" height="8" fill="#FFD700" opacity="0.8"/>
<rect x="185" y="300" width="5" height="8" fill="#FFD700" opacity="0.8"/>
<rect x="195" y="300" width="5" height="8" fill="#1A1A2E" opacity="0.8"/>
<rect x="205" y="300" width="5" height="8" fill="#FFD700" opacity="0.8"/>
<rect x="185" y="320" width="5" height="8" fill="#FFD700" opacity="0.8"/>
<rect x="195" y="320" width="5" height="8" fill="#FFD700" opacity="0.8"/>
<rect x="205" y="320" width="5" height="8" fill="#1A1A2E" opacity="0.8"/>
<rect x="185" y="340" width="5" height="8" fill="#1A1A2E" opacity="0.8"/>
<rect x="195" y="340" width="5" height="8" fill="#FFD700" opacity="0.8"/>
<rect x="205" y="340" width="5" height="8" fill="#FFD700" opacity="0.8"/>
<rect x="185" y="360" width="5" height="8" fill="#FFD700" opacity="0.8"/>
<rect x="195" y="360" width="5" height="8" fill="#1A1A2E" opacity="0.8"/>
<rect x="205" y="360" width="5" height="8" fill="#FFD700" opacity="0.8"/>
<rect x="185" y="380" width="5" height="8" fill="#FFD700" opacity="0.8"/>
<rect x="195" y="380" width="5" height="8" fill="#FFD700" opacity="0.8"/>
<rect x="205" y="380" width="5" height="8" fill="#1A1A2E" opacity="0.8"/>
<rect x="220" y="210" width="43" height="190" fill="#0F3460" opacity="0.7"/>
<rect x="225" y="220" width="5" height="8" fill="#FFD700" opacity="0.8"/>
<rect x="235" y="220" width="5" height="8" fill="#FFD700" opacity="0.8"/>
<rect x="245" y="220" width="5" height="8" fill="#1A1A2E" opacity="0.8"/>
<rect x="255" y="220" width="5" height="8" fill="#FFD700" opacity="0.8"/>
<rect x="225" y="240" width="5" height="8" fill="#1A1A2E" opacity="0.8"/>
<rect x="235" y="240" width="5" height="8" fill="#FFD700" opacity="0.8"/>
<rect x="245" y="240" width="5" height="8" fill="#FFD700" opacity="0.8"/>
<rect x="255" y="240" width="5" height="8" fill="#1A1A2E" opacity="0.8"/>
<rect x="225" y="260" width="5" height="8" fill="#FFD700" opacity="0.8"/>
<rect x="235" y="260" width="5" height="8" fill="#1A1A2E" opacity="0.8"/>
<rect x="245" y="260" width="5" height="8" fill="#FFD700" opacity="0.8"/>
<rect x="255" y="260" width="5" height="8" fill="#FFD700" opacity="0.8"/>
<rect x="225" y="280" width="5" height="8" fill="#FFD700" opacity="0.8"/>
<rect x="235" y="280" width="5" height="8" fill="#FFD700" opacity="0.8"/>
<rect x="245" y="280" width="5" height="8" fill="#1A1A2E" opacity="0.8"/>
<rect x="255" y="280" width="5" height="8" fill="#FFD700" opacity="0.8"/>
<rect x="225" y="300" width="5" height="8" fill="#1A1A2E" opacity="0.8"/>
<rect x="235" y="300" width="5" height="8" fill="#FFD700" opacity="0.8"/>
<rect x="245" y="300" width="5" height="8" fill="#FFD700" opacity="0.8"/>
<rect x="255" y="300" width="5" height="8" fill="#1A1A2E" opacity="0.8"/>
<rect x="225" y="320" width="5" height="8" fill="#FFD700" opacity="0.8"/>
<rect x="235" y="320" width="5" height="8" fill="#1A1A2E" opacity="0.8"/>
<rect x="245" y="320" width="5" height="8" fill="#FFD700" opacity="0.8"/>
<rect x="255" y="320" width="5" height="8" fill="#FFD700" opacity="0.8"/>
<rect x="225" y="340" width="5" height="8" fill="#FFD700" opacity="0.8"/>
<rect x="235" y="340" width="5" height="8" fill="#FFD700" opacity="0.8"/>
<rect x="245" y="340" width="5" height="8" fill="#1A1A2E" opacity="0.8"/>
<rect x="255" y="340" width="5" height="8" fill="#FFD700" opacity="0.8"/>
<rect x="225" y="360" width="5" height="8" fill="#1A1A2E" opacity="0.8"/>
<rect x="235" y="360" width="5" height="8" fill="#FFD700" opacity="0.8"/>
<rect x="245" y="360" width="5" height="8" fill="#FFD700" opacity="0.8"/>
<rect x="255" y="360" width="5" height="8" fill="#1A1A2E" opacity="0.8"/>
<rect x="225" y="380" width="5" height="8" fill="#FFD700" opacity="0.8"/>
<rect x="235" y="380" width="5" height="8" fill="#1A1A2E" opacity="0.8"/>
<rect x="245" y="380" width="5" height="8" fill="#FFD700" opacity="0.8"/>
<rect x="255" y="380" width="5" height="8" fill="#FFD700" opacity="0.8"/>
<rect x="260" y="270" width="38" height="130" fill="#0F3460" opacity="0.7"/>
<rect x="265" y="280" width="5" height="8" fill="#FFD700" opacity="0.8"/>
<rect x="275" y="280" width="5" height="8" fill="#1A1A2E" opacity="0.8"/>
<rect x="285" y="280" width="5" height="8" fill="#FFD700" opacity="0.8"/>
<rect x="265" y="300" width="5" height="8" fill="#FFD700" opacity="0.8"/>
<rect x="275" y="300" width="5" height="8" fill="#FFD700" opacity="0.8"/>
<rect x="285" y="300" width="5" height="8" fill="#1A1A2E" opacity="0.8"/>
<rect x="265" y="320" width="5" height="8" fill="#1A1A2E" opacity="0.8"/>
<rect x="275" y="320" width="5" height="8" fill="#FFD700" opacity="0.8"/>
<rect x="285" y="320" width="5" height="8" fill="#FFD700" opacity="0.8"/>
<rect x="265" y="340" width="5" height="8" fill="#FFD700" opacity="0.8"/>
<rect x="275" y="340" width="5" height="8" fill="#1A1A2E" opacity="0.8"/>
<rect x="285" y="340" width="5" height="8" fill="#FFD700" opacity="0.8"/>
<rect x="265" y="360" width="5" height="8" fill="#FFD700" opacity="0.8"/>
<rect x="275" y="360" width="5" height="8" fill="#FFD700" opacity="0.8"/>
<rect x="285" y="360" width="5" height="8" fill="#1A1A2E" opacity="0.8"/>
<rect x="265" y="380" width="5" height="8" fill="#1A1A2E" opacity="0.8"/>
<rect x="275" y="380" width="5" height="8" fill="#FFD700" opacity="0.8"/>
<rect x="285" y="380" width="5" height="8" fill="#FFD700" opacity="0.8"/>
<rect x="300" y="230" width="33" height="170" fill="#0F3460" opacity="0.7"/>
<rect x="305" y="240" width="5" height="8" fill="#FFD700" opacity="0.8"/>
<rect x="315" y="240" width="5" height="8" fill="#1A1A2E" opacity="0.8"/>
<rect x="325" y="240" width="5" height="8" fill="#FFD700" opacity="0.8"/>
<rect x="305" y="260" width="5" height="8" fill="#FFD700" opacity="0.8"/>
<rect x="315" y="260" width="5" height="8" fill="#FFD700" opacity="0.8"/>
<rect x="325" y="260" width="5" height="8" fill="#1A1A2E" opacity="0.8"/>
<rect x="305" y="280" width="5" height="8" fill="#1A1A2E" opacity="0.8"/>
<rect x="315" y="280" width="5" height="8" fill="#FFD700" opacity="0.8"/>
<rect x="325" y="280" width="5" height="8" fill="#FFD700" opacity="0.8"/>
<rect x="305" y="300" width="5" height="8" fill="#FFD700" opacity="0.8"/>
<rect x="315" y="300" width="5" height="8" fill="#1A1A2E" opacity="0.8"/>
<rect x="325" y="300" width="5" height="8" fill="#FFD700" opacity="0.8"/>
<rect x="305" y="320" width="5" height="8" fill="#FFD700" opacity="0.8"/>
<rect x="315" y="320" width="5" height="8" fill="#FFD700" opacity="0.8"/>
<rect x="325" y="320" width="5" height="8" fill="#1A1A2E" opacity="0.8"/>
<rect x="305" y="340" width="5" height="8" fill="#1A1A2E" opacity="0.8"/>
<rect x="315" y="340" width="5" height="8" fill="#FFD700" opacity="0.8"/>
<rect x="325" y="340" width="5" height="8" fill="#FFD700" opacity="0.8"/>
<rect x="305" y="360" width="5" height="8" fill="#FFD700" opacity="0.8"/>
<rect x="315" y="360" width="5" height="8" fill="#1A1A2E" opacity="0.8"/>
<rect x="325" y="360" width="5" height="8" fill="#FFD700" opacity="0.8"/>
<rect x="305" y="380" width="5" height="8" fill="#FFD700" opacity="0.8"/>
<rect x="315" y="380" width="5" height="8" fill="#FFD700" opacity="0.8"/>
<rect x="325" y="380" width="5" height="8" fill="#1A1A2E" opacity="0.8"/>
<rect x="340" y="240" width="43" height="160" fill="#0F3460" opacity="0.7"/>
<rect x="345" y="250" width="5" height="8" fill="#FFD700" opacity="0.8"/>
<rect x="355" y="250" width="5" height="8" fill="#FFD700" opacity="0.8"/>
<rect x="365" y="250" width="5" height="8" fill="#1A1A2E" opacity="0.8"/>
<rect x="375" y="250" width="5" height="8" fill="#FFD700" opacity="0.8"/>
<rect x="345" y="270" width="5" height="8" fill="#1A1A2E" opacity="0.8"/>
<rect x="355" y="270" width="5" height="8" fill="#FFD700" opacity="0.8"/>
<rect x="365" y="270" width="5" height="8" fill="#FFD700" opacity="0.8"/>
<rect x="375" y="270" width="5" height="8" fill="#1A1A2E" opacity="0.8"/>
<rect x="345" y="290" width="5" height="8" fill="#FFD700" opacity="0.8"/>
<rect x="355" y="290" width="5" height="8" fill="#1A1A2E" opacity="0.8"/>
<rect x="365" y="290" width="5" height="8" fill="#FFD700" opacity="0.8"/>
<rect x="375" y="290" width="5" height="8" fill="#FFD700" opacity="0.8"/>
<rect x="345" y="310" width="5" height="8" fill="#FFD700" opacity="0.8"/>
<rect x="355" y="310" width="5" height="8" fill="#FFD700" opacity="0.8"/>
<rect x="365" y="310" width="5" height="8" fill="#1A1A2E" opacity="0.8"/>
<rect x="375" y="310" width="5" height="8" fill="#FFD700" opacity="0.8"/>
<rect x="345" y="330" width="5" height="8" fill="#1A1A2E" opacity="0.8"/>
<rect x="355" y="330" width="5" height="8" fill="#FFD700" opacity="0.8"/>
<rect x="365" y="330" width="5" height="8" fill="#FFD700" opacity="0.8"/>
<rect x="375" y="330" width="5" height="8" fill="#1A1A2E" opacity="0.8"/>
<rect x="345" y="350" width="5" height="8" fill="#FFD700" opacity="0.8"/>
<rect x="355" y="350" width="5" height="8" fill="#1A1A2E" opacity="0.8"/>
<rect x="365" y="350" width="5" height="8" fill="#FFD700" opacity="0.8"/>
<rect x="375" y="350" width="5" height="8" fill="#FFD700" opacity="0.8"/>
<rect x="345" y="370" width="5" height="8" fill="#FFD700" opacity="0.8"/>
<rect x="355" y="370" width="5" height="8" fill="#FFD700" opacity="0.8"/>
<rect x="365" y="370" width="5" height="8" fill="#1A1A2E" opacity="0.8"/>
<rect x="375" y="370" width="5" height="8" fill="#FFD700" opacity="0.8"/>
<rect x="370" y="260" width="43" height="140" fill="#0F3460" opacity="0.7"/>
<rect x="375" y="270" width="5" height="8" fill="#1A1A2E" opacity="0.8"/>
<rect x="385" y="270" width="5" height="8" fill="#FFD700" opacity="0.8"/>
<rect x="395" y="270" width="5" height="8" fill="#FFD700" opacity="0.8"/>
<rect x="405" y="270" width="5" height="8" fill="#1A1A2E" opacity="0.8"/>
<rect x="375" y="290" width="5" height="8" fill="#FFD700" opacity="0.8"/>
<rect x="385" y="290" width="5" height="8" fill="#1A1A2E" opacity="0.8"/>
<rect x="395" y="290" width="5" height="8" fill="#FFD700" opacity="0.8"/>
<rect x="405" y="290" width="5" height="8" fill="#FFD700" opacity="0.8"/>
<rect x="375" y="310" width="5" height="8" fill="#FFD700" opacity="0.8"/>
<rect x="385" y="310" width="5" height="8" fill="#FFD700" opacity="0.8"/>
<rect x="395" y="310" width="5" height="8" fill="#1A1A2E" opacity="0.8"/>
<rect x="405" y="310" width="5" height="8" fill="#FFD700" opacity="0.8"/>
<rect x="375" y="330" width="5" height="8" fill="#1A1A2E" opacity="0.8"/>
<rect x="385" y="330" width="5" height="8" fill="#FFD700" opacity="0.8"/>
<rect x="395" y="330" width="5" height="8" fill="#FFD700" opacity="0.8"/>
<rect x="405" y="330" width="5" height="8" fill="#1A1A2E" opacity="0.8"/>
<rect x="375" y="350" width="5" height="8" fill="#FFD700" opacity="0.8"/>
<rect x="385" y="350" width="5" height="8" fill="#1A1A2E" opacity="0.8"/>
<rect x="395" y="350" width="5" height="8" fill="#FFD700" opacity="0.8"/>
<rect x="405" y="350" width="5" height="8" fill="#FFD700" opacity="0.8"/>
<rect x="375" y="370" width="5" height="8" fill="#FFD700" opacity="0.8"/>
<rect x="385" y="370" width="5" height="8" fill="#FFD700" opacity="0.8"/>
<rect x="395" y="370" width="5" height="8" fill="#1A1A2E" opacity="0.8"/>
<rect x="405" y="370" width="5" height="8" fill="#FFD700" opacity="0.8"/>
<ellipse cx="200" cy="200" rx="133" ry="58" fill="#B8860B" transform="rotate(0.0 200 200)" opacity="0.75"/>
<ellipse cx="200" cy="200" rx="140" ry="69" fill="#B8860B" transform="rotate(22.5 200 200)" opacity="0.75"/>
<ellipse cx="200" cy="200" rx="147" ry="65" fill="#B8860B" transform="rotate(45.0 200 200)" opacity="0.75"/>
<ellipse cx="200" cy="200" rx="134" ry="61" fill="#B8860B" transform="rotate(67.5 200 200)" opacity="0.75"/>
<ellipse cx="200" cy="200" rx="141" ry="57" fill="#B8860B" transform="rotate(90.0 200 200)" opacity="0.75"/>
<ellipse cx="200" cy="200" rx="148" ry="68" fill="#B8860B" transform="rotate(112.5 200 200)" opacity="0.75"/>
<ellipse cx="200" cy="200" rx="135" ry="64" fill="#B8860B" transform="rotate(135.0 200 200)" opacity="0.75"/>
<ellipse cx="200" cy="200" rx="142" ry="60" fill="#B8860B" transform="rotate(157.5 200 200)" opacity="0.75"/>
<ellipse cx="200" cy="200" rx="149" ry="56" fill="#B8860B" transform="rotate(180.0 200 200)" opacity="0.75"/>
<ellipse cx="200" cy="200" rx="136" ry="67" fill="#B8860B" transform="rotate(202.5 200 200)" opacity="0.75"/>
<ellipse cx="200" cy="200" rx="143" ry="63" fill="#B8860B" transform="rotate(225.0 200 200)" opacity="0.75"/>
<ellipse cx="200" cy="200" rx="130" ry="59" fill="#B8860B" transform="rotate(247.5 200 200)" opacity="0.75"/>
<ellipse cx="200" cy="200" rx="137" ry="55" fill="#B8860B" transform="rotate(270.0 200 200)" opacity="0.75"/>
<ellipse cx="200" cy="200" rx="144" ry="66" fill="#B8860B" transform="rotate(292.5 200 200)" opacity="0.75"/>
<ellipse cx="200" cy="200" rx="131" ry="62" fill="#B8860B" transform="rotate(315.0 200 200)" opacity="0.75"/>
<ellipse cx="200" cy="200" rx="138" ry="58" fill="#B8860B" transform="rotate(337.5 200 200)" opacity="0.75"/>
<circle cx="200" cy="200" r="110" fill="#8B6508" opacity="0.5"/>
<circle cx="132" cy="132" r="22" fill="#DAA520"/>
<circle cx="132" cy="132" r="12" fill="#FFD700" opacity="0.5"/>
<circle cx="268" cy="132" r="22" fill="#DAA520"/>
<circle cx="268" cy="132" r="12" fill="#FFD700" opacity="0.5"/>
<circle cx="200" cy="200" r="90" fill="#DAA520" filter="url(#shadow)"/>
<ellipse cx="200" cy="230" rx="48" ry="38" fill="#FFD700" opacity="0.5"/>
<g clip-path="url(#body-clip)" opacity="0.3">
<circle cx="239" cy="251" r="12" fill="#B8860B"/>
<circle cx="218" cy="242" r="5" fill="#B8860B"/>
<circle cx="197" cy="233" r="6" fill="#B8860B"/>
<circle cx="176" cy="224" r="7" fill="#B8860B"/>
<circle cx="155" cy="215" r="8" fill="#B8860B"/>
<circle cx="254" cy="206" r="9" fill="#B8860B"/>
<circle cx="233" cy="197" r="10" fill="#B8860B"/>
<circle cx="212" cy="188" r="11" fill="#B8860B"/>
<circle cx="191" cy="179" r="12" fill="#B8860B"/>
<circle cx="170" cy="170" r="5" fill="#B8860B"/>
<circle cx="149" cy="161" r="6" fill="#B8860B"/>
<circle cx="248" cy="152" r="7" fill="#B8860B"/>
</g>
<ellipse cx="170" cy="188" rx="12" ry="10" fill="#88DD44"/>
<circle cx="170" cy="188" r="4" fill="#000"/>
<circle cx="172" cy="186" r="2" fill="white" opacity="0.7"/>
<ellipse cx="230" cy="188" rx="12" ry="10" fill="#88DD44"/>
<circle cx="230" cy="188" r="4" fill="#000"/>
<circle cx="232" cy="186" r="2" fill="white" opacity="0.7"/>
<path d="M188 220 Q200 212 212 220 L200 232 Z" fill="#3E2723"/>
<path d="M185 240 Q205 248 222 234" stroke="#3E2723" stroke-width="2.5" fill="none" stroke-linecap="round"/>
<line x1="170" y1="215" x2="130" y2="212" stroke="#3E2723" stroke-width="1" opacity="0.3"/>
<line x1="170" y1="225" x2="130" y2="222" stroke="#3E2723" stroke-width="1" opacity="0.3"/>
<line x1="230" y1="215" x2="270" y2="218" stroke="#3E2723" stroke-width="1" opacity="0.3"/>
<line x1="230" y1="225" x2="270" y2="228" stroke="#3E2723" stroke-width="1" opacity="0.3"/>
<rect x="154" y="176" width="28" height="18" rx="4" fill="#111" opacity="0.85"/>
<rect x="218" y="176" width="28" height="18" rx="4" fill="#111" opacity="0.85"/>
<line x1="182" y1="186" x2="218" y2="186" stroke="#333" stroke-width="2"/>
<line x1="154" y1="182" x2="140" y2="176" stroke="#333" stroke-width="2"/>
<line x1="246" y1="182" x2="260" y2="176" stroke="#333" stroke-width="2"/>
<polygon points="397.0,245.0 397.9,247.7 400.8,247.8 398.5,249.5 399.4,252.2 397.0,250.6 394.6,252.2 395.5,249.5 393.2,247.8 396.1,247.7" fill="#FFD700"/>
<polygon points="394.0,93.0 395.2,96.4 398.8,96.5 395.9,98.6 396.9,102.0 394.0,100.0 391.1,102.0 392.1,98.6 389.2,96.5 392.8,96.4" fill="#FFD700"/>
<polygon points="391.0,341.0 392.4,345.1 396.7,345.1 393.3,347.7 394.5,351.9 391.0,349.4 387.5,351.9 388.7,347.7 385.3,345.1 389.6,345.1" fill="#FFD700"/>
<polygon points="388.0,189.0 389.6,193.7 394.7,193.8 390.7,196.9 392.1,201.7 388.0,198.8 383.9,201.7 385.3,196.9 381.3,193.8 386.4,193.7" fill="#FFD700"/>
<polygon points="385.0,37.0 386.9,42.4 392.6,42.5 388.0,46.0 389.7,51.5 385.0,48.2 380.3,51.5 382.0,46.0 377.4,42.5 383.1,42.4" fill="#FFD700"/>
<polygon points="382.0,290.0 382.9,292.7 385.8,292.8 383.5,294.5 384.4,297.2 382.0,295.6 379.6,297.2 380.5,294.5 378.2,292.8 381.1,292.7" fill="#FFD700"/>
<polygon points="379.0,138.0 380.2,141.4 383.8,141.5 380.9,143.6 381.9,147.0 379.0,145.0 376.1,147.0 377.1,143.6 374.2,141.5 377.8,141.4" fill="#FFD700"/>
<polygon points="376.0,386.0 377.4,390.1 381.7,390.1 378.3,392.7 379.5,396.9 376.0,394.4 372.5,396.9 373.7,392.7 370.3,390.1 374.6,390.1" fill="#FFD700"/>
<polygon points="373.0,234.0 374.6,238.7 379.7,238.8 375.7,241.9 377.1,246.7 373.0,243.8 368.9,246.7 370.3,241.9 366.3,238.8 371.4,238.7" fill="#FFD700"/>
<polygon points="370.0,82.0 371.9,87.4 377.6,87.5 373.0,91.0 374.7,96.5 370.0,93.2 365.3,96.5 367.0,91.0 362.4,87.5 368.1,87.4" fill="#FFD700"/>
</svg>