<svg width="400" height="400" viewBox="0 0 400 400" xmlns="http://www.w3.org/2000/svg">
<defs>
<filter id="shadow" x="-20%" y="-20%" width="140%" height="140%"><feDropShadow dx="2" dy="4" stdDeviation="3" flood-opacity="0.3"/></filter>
<filter id="glow"><feGaussianBlur in="SourceGraphic" stdDeviation="8" result="blur"/><feMerge><feMergeNode in="blur"/><feMergeNode in="SourceGraphic"/></feMerge></filter>
<filter id="glow-strong"><feGaussianBlur in="SourceGraphic" stdDeviation="15" result="blur"/><feMerge><feMergeNode in="blur"/><feMergeNode in="blur"/><feMergeNode in="SourceGraphic"/></feMerge></filter>
<linearGradient id="bg-sky" x1="0%" y1="0%" x2="0%" y2="100%"><stop offset="0%" stop-color="#87CEEB"/><stop offset="100%" stop-color="#E0F4FF"/></linearGradient>
<linearGradient id="bg-sunset" x1="0%" y1="0%" x2="0%" y2="100%"><stop offset="0%" stop-color="#FF4500"/><stop offset="40%" stop-color="#FF8C00"/><stop offset="100%" stop-color="#FFD700"/></linearGradient>
<linearGradient id="bg-forest" x1="0%" y1="0%" x2="0%" y2="100%"><stop offset="0%" stop-color="#2D5016"/><stop offset="100%" stop-color="#4A7A2E"/></linearGradient>
<linearGradient id="bg-grass" x1="0%" y1="0%" x2="0%" y2="100%"><stop offset="0%" stop-color="#87CEEB"/><stop offset="60%" stop-color="#87CEEB"/><stop offset="60%" stop-color="#7CCD7C"/><stop offset="100%" stop-color="#4A8B3F"/></linearGradient>
<linearGradient id="bg-beach" x1="0%" y1="0%" x2="0%" y2="100%"><stop offset="0%" stop-color="#87CEEB"/><stop offset="50%" stop-color="#87CEEB"/><stop offset="50%" stop-color="#F4D03F"/><stop offset="100%" stop-color="#E8C430"/></linearGradient>
<linearGradient id="bg-space" x1="0%" y1="0%" x2="0%" y2="100%"><stop offset="0%" stop-color="#0B0B2B"/><stop offset="100%" stop-color="#1A1A4A"/></linearGradient>
<linearGradient id="bg-underwater" x1="0%" y1="0%" x2="0%" y2="100%"><stop offset="0%" stop-color="#006994"/><stop offset="100%" stop-color="#003050"/></linearGradient>
<linearGradient id="bg-volcano" x1="0%" y1="0%" x2="0%" y2="100%"><stop offset="0%" stop-color="#1A0A00"/><stop offset="60%" stop-color="#4A1A00"/><stop offset="100%" stop-color="#FF4500"/></linearGradient>
<linearGradient id="bg-aurora-bg" x1="0%" y1="0%" x2="100%" y2="100%"><stop offset="0%" stop-color="#0B1A30"/><stop offset="33%" stop-color="#1A4A3A"/><stop offset="66%" stop-color="#2A1A5A"/><stop offset="100%" stop-color="#0B1A30"/></linearGradient>
<linearGradient id="bg-multiverse" x1="0%" y1="0%" x2="100%" y2="100%"><stop offset="0%" stop-color="#FF006E"/><stop offset="25%" stop-color="#8338EC"/><stop offset="50%" stop-color="#3A86FF"/><stop offset="75%" stop-color="#06D6A0"/><stop offset="100%" stop-color="#FFD166"/></linearGradient>
<radialGradient id="bg-black-hole" cx="50%" cy="50%" r="50%"><stop offset="0%" stop-color="#000000"/><stop offset="60%" stop-color="#1A0530"/><stop offset="100%" stop-color="#4A1A70"/></radialGradient>
<linearGradient id="bg-dimension" x1="0%" y1="0%" x2="100%" y2="100%"><stop offset="0%" stop-color="#FF0080"/><stop offset="50%" stop-color="#0000FF"/><stop offset="100%" stop-color="#00FF80"/></linearGradient>
<linearGradient id="bg-heaven" x1="0%" y1="0%" x2="0%" y2="100%"><stop offset="0%" stop-color="#FFFDE0"/><stop offset="100%" stop-color="#FFF8E1"/></linearGradient>
<linearGradient id="bg-mountains" x1="0%" y1="0%" x2="0%" y2="100%"><stop offset="0%" stop-color="#87CEEB"/><stop offset="100%" stop-color="#B0C4DE"/></linearGradient>
<linearGradient id="bg-city" x1="0%" y1="0%" x2="0%" y2="100%"><stop offset="0%" stop-color="#1A1A2E"/><stop offset="100%" stop-color="#16213E"/></linearGradient>
<clipPath id="body-clip"><circle cx="200" cy="200" r="88"/></clipPath>
</defs>
<rect width="400" height="400" fill="url(#bg-beach)"/>
<path d="M0 190 Q100 175 200 190 T400 190" stroke="#5DADE2" stroke-width="2" fill="none" opacity="0.5"/>
<ellipse cx="200" cy="200" rx="136" ry="66" fill="#B8860B" transform="rotate(0.0 200 200)" opacity="0.75"/>
<ellipse cx="200" cy="200" rx="143" ry="62" fill="#B8860B" transform="rotate(22.5 200 200)" opacity="0.75"/>
<ellipse cx="200" cy="200" rx="130" ry="58" fill="#B8860B" transform="rotate(45.0 200 200)" opacity="0.75"/>
<ellipse cx="200" cy="200" rx="137" ry="69" fill="#B8860B" transform="rotate(67.5 200 200)" opacity="0.75"/>
<ellipse cx="200" cy="200" rx="144" ry="65" fill="#B8860B" transform="rotate(90.0 200 200)" opacity="0.75"/>
<ellipse cx="200" cy="200" rx="131" ry="61" fill="#B8860B" transform="rotate(112.5 200 200)" opacity="0.75"/>
<ellipse cx="200" cy="200" rx="138" ry="57" fill="#B8860B" transform="rotate(135.0 200 200)" opacity="0.75"/>
<ellipse cx="200" cy="200" rx="145" ry="68" fill="#B8860B" transform="rotate(157.5 200 200)" opacity="0.75"/>
<ellipse cx="200" cy="200" rx="132" ry="64" fill="#B8860B" transform="rotate(180.0 200 200)" opacity="0.75"/>
<ellipse cx="200" cy="200" rx="139" ry="60" fill="#B8860B" transform="rotate(202.5 200 200)" opacity="0.75"/>
<ellipse cx="200" cy="200" rx="146" ry="56" fill="#B8860B" transform="rotate(225.0 200 200)" opacity="0.75"/>
<ellipse cx="200" cy="200" rx="133" ry="67" fill="#B8860B" transform="rotate(247.5 200 200)" opacity="0.75"/>
<ellipse cx="200" cy="200" rx="140" ry="63" fill="#B8860B" transform="rotate(270.0 200 200)" opacity="0.75"/>
<ellipse cx="200" cy="200" rx="147" ry="59" fill="#B8860B" transform="rotate(292.5 200 200)" opacity="0.75"/>
<ellipse cx="200" cy="200" rx="134" ry="55" fill="#B8860B" transform="rotate(315.0 200 200)" opacity="0.75"/>
<ellipse cx="200" cy="200" rx="141" ry="66" fill="#B8860B" transform="rotate(337.5 200 200)" opacity="0.75"/>
<circle cx="200" cy="200" r="110" fill="#8B6508" opacity="0.5"/>
<circle cx="132" cy="132" r="22" fill="#DAA520"/>
<circle cx="132" cy="132" r="12" fill="#FFD700" opacity="0.5"/>
<circle cx="268" cy="132" r="22" fill="#DAA520"/>
<circle cx="268" cy="132" r="12" fill="#FFD700" opacity="0.5"/>
<circle cx="200" cy="200" r="90" fill="#DAA520" filter="url(#shadow)"/>
<ellipse cx="200" cy="230" rx="48" ry="38" fill="#FFD700" opacity="0.5"/>
<g clip-path="url(#body-clip)" opacity="0.3">
<polygon points="164.0,182.0 165.8,185.6 169.7,186.1 166.9,188.9 167.5,192.9 164.0,191.0 160.5,192.9 161.1,188.9 158.3,186.1 162.2,185.6" fill="#B8860B"/>
<polygon points="178.0,220.0 179.8,223.6 183.7,224.1 180.9,226.9 181.5,230.9 178.0,229.0 174.5,230.9 175.1,226.9 172.3,224.1 176.2,223.6" fill="#B8860B"/>
<polygon points="192.0,158.0 193.8,161.6 197.7,162.1 194.9,164.9 195.5,168.9 192.0,167.0 188.5,168.9 189.1,164.9 186.3,162.1 190.2,161.6" fill="#B8860B"/>
<polygon points="206.0,196.0 207.8,199.6 211.7,200.1 208.9,202.9 209.5,206.9 206.0,205.0 202.5,206.9 203.1,202.9 200.3,200.1 204.2,199.6" fill="#B8860B"/>
<polygon points="220.0,234.0 221.8,237.6 225.7,238.1 222.9,240.9 223.5,244.9 220.0,243.0 216.5,244.9 217.1,240.9 214.3,238.1 218.2,237.6" fill="#B8860B"/>
<polygon points="234.0,172.0 235.8,175.6 239.7,176.1 236.9,178.9 237.5,182.9 234.0,181.0 230.5,182.9 231.1,178.9 228.3,176.1 232.2,175.6" fill="#B8860B"/>
<polygon points="248.0,210.0 249.8,213.6 253.7,214.1 250.9,216.9 251.5,220.9 248.0,219.0 244.5,220.9 245.1,216.9 242.3,214.1 246.2,213.6" fill="#B8860B"/>
<polygon points="162.0,148.0 163.8,151.6 167.7,152.1 164.9,154.9 165.5,158.9 162.0,157.0 158.5,158.9 159.1,154.9 156.3,152.1 160.2,151.6" fill="#B8860B"/>
</g>
<path d="M158 188 Q170 178 182 188" stroke="#000" stroke-width="2.5" fill="none" stroke-linecap="round"/>
<path d="M218 188 Q230 178 242 188" stroke="#000" stroke-width="2.5" fill="none" stroke-linecap="round"/>
<circle cx="200" cy="163" r="4" fill="#FFD700" opacity="0.7"/>
<path d="M188 220 Q200 212 212 220 L200 232 Z" fill="#3E2723"/>
<path d="M185 238 Q200 246 215 238" stroke="#3E2723" stroke-width="2" fill="none" stroke-linecap="round"/>
<line x1="170" y1="215" x2="130" y2="212" stroke="#3E2723" stroke-width="1" opacity="0.3"/>
<line x1="170" y1="225" x2="130" y2="222" stroke="#3E2723" stroke-width="1" opacity="0.3"/>
<line x1="230" y1="215" x2="270" y2="218" stroke="#3E2723" stroke-width="1" opacity="0.3"/>
<line x1="230" y1="225" x2="270" y2="228" stroke="#3E2723" stroke-width="1" opacity="0.3"/>
<path d="M135 180 Q135 115 200 110 Q265 115 265 180" stroke="#333" stroke-width="5" fill="none"/>
<ellipse cx="132" cy="185" rx="12" ry="16" fill="#444"/>
<ellipse cx="268" cy="185" rx="12" ry="16" fill="#444"/>
<ellipse cx="200" cy="300" rx="90" ry="20" fill="#000" opacity="0.2"/>
</svg>