<svg width="400" height="400" viewBox="0 0 400 400" xmlns="http://www.w3.org/2000/svg">
<defs>
<filter id="shadow" x="-20%" y="-20%" width="140%" height="140%"><feDropShadow dx="2" dy="4" stdDeviation="3" flood-opacity="0.3"/></filter>
<filter id="glow"><feGaussianBlur in="SourceGraphic" stdDeviation="8" result="blur"/><feMerge><feMergeNode in="blur"/><feMergeNode in="SourceGraphic"/></feMerge></filter>
<filter id="glow-strong"><feGaussianBlur in="SourceGraphic" stdDeviation="15" result="blur"/><feMerge><feMergeNode in="blur"/><feMergeNode in="blur"/><feMergeNode in="SourceGraphic"/></feMerge></filter>
<linearGradient id="bg-sky" x1="0%" y1="0%" x2="0%" y2="100%"><stop offset="0%" stop-color="#87CEEB"/><stop offset="100%" stop-color="#E0F4FF"/></linearGradient>
<linearGradient id="bg-sunset" x1="0%" y1="0%" x2="0%" y2="100%"><stop offset="0%" stop-color="#FF4500"/><stop offset="40%" stop-color="#FF8C00"/><stop offset="100%" stop-color="#FFD700"/></linearGradient>
<linearGradient id="bg-forest" x1="0%" y1="0%" x2="0%" y2="100%"><stop offset="0%" stop-color="#2D5016"/><stop offset="100%" stop-color="#4A7A2E"/></linearGradient>
<linearGradient id="bg-grass" x1="0%" y1="0%" x2="0%" y2="100%"><stop offset="0%" stop-color="#87CEEB"/><stop offset="60%" stop-color="#87CEEB"/><stop offset="60%" stop-color="#7CCD7C"/><stop offset="100%" stop-color="#4A8B3F"/></linearGradient>
<linearGradient id="bg-beach" x1="0%" y1="0%" x2="0%" y2="100%"><stop offset="0%" stop-color="#87CEEB"/><stop offset="50%" stop-color="#87CEEB"/><stop offset="50%" stop-color="#F4D03F"/><stop offset="100%" stop-color="#E8C430"/></linearGradient>
<linearGradient id="bg-space" x1="0%" y1="0%" x2="0%" y2="100%"><stop offset="0%" stop-color="#0B0B2B"/><stop offset="100%" stop-color="#1A1A4A"/></linearGradient>
<linearGradient id="bg-underwater" x1="0%" y1="0%" x2="0%" y2="100%"><stop offset="0%" stop-color="#006994"/><stop offset="100%" stop-color="#003050"/></linearGradient>
<linearGradient id="bg-volcano" x1="0%" y1="0%" x2="0%" y2="100%"><stop offset="0%" stop-color="#1A0A00"/><stop offset="60%" stop-color="#4A1A00"/><stop offset="100%" stop-color="#FF4500"/></linearGradient>
<linearGradient id="bg-aurora-bg" x1="0%" y1="0%" x2="100%" y2="100%"><stop offset="0%" stop-color="#0B1A30"/><stop offset="33%" stop-color="#1A4A3A"/><stop offset="66%" stop-color="#2A1A5A"/><stop offset="100%" stop-color="#0B1A30"/></linearGradient>
<linearGradient id="bg-multiverse" x1="0%" y1="0%" x2="100%" y2="100%"><stop offset="0%" stop-color="#FF006E"/><stop offset="25%" stop-color="#8338EC"/><stop offset="50%" stop-color="#3A86FF"/><stop offset="75%" stop-color="#06D6A0"/><stop offset="100%" stop-color="#FFD166"/></linearGradient>
<radialGradient id="bg-black-hole" cx="50%" cy="50%" r="50%"><stop offset="0%" stop-color="#000000"/><stop offset="60%" stop-color="#1A0530"/><stop offset="100%" stop-color="#4A1A70"/></radialGradient>
<linearGradient id="bg-dimension" x1="0%" y1="0%" x2="100%" y2="100%"><stop offset="0%" stop-color="#FF0080"/><stop offset="50%" stop-color="#0000FF"/><stop offset="100%" stop-color="#00FF80"/></linearGradient>
<linearGradient id="bg-heaven" x1="0%" y1="0%" x2="0%" y2="100%"><stop offset="0%" stop-color="#FFFDE0"/><stop offset="100%" stop-color="#FFF8E1"/></linearGradient>
<linearGradient id="bg-mountains" x1="0%" y1="0%" x2="0%" y2="100%"><stop offset="0%" stop-color="#87CEEB"/><stop offset="100%" stop-color="#B0C4DE"/></linearGradient>
<linearGradient id="bg-city" x1="0%" y1="0%" x2="0%" y2="100%"><stop offset="0%" stop-color="#1A1A2E"/><stop offset="100%" stop-color="#16213E"/></linearGradient>
<clipPath id="body-clip"><circle cx="200" cy="200" r="88"/></clipPath>
</defs>
<rect width="400" height="400" fill="url(#bg-beach)"/>
<path d="M0 190 Q100 175 200 190 T400 190" stroke="#5DADE2" stroke-width="2" fill="none" opacity="0.5"/>
<ellipse cx="200" cy="200" rx="148" ry="63" fill="#B8860B" transform="rotate(0.0 200 200)" opacity="0.75"/>
<ellipse cx="200" cy="200" rx="135" ry="59" fill="#B8860B" transform="rotate(22.5 200 200)" opacity="0.75"/>
<ellipse cx="200" cy="200" rx="142" ry="55" fill="#B8860B" transform="rotate(45.0 200 200)" opacity="0.75"/>
<ellipse cx="200" cy="200" rx="149" ry="66" fill="#B8860B" transform="rotate(67.5 200 200)" opacity="0.75"/>
<ellipse cx="200" cy="200" rx="136" ry="62" fill="#B8860B" transform="rotate(90.0 200 200)" opacity="0.75"/>
<ellipse cx="200" cy="200" rx="143" ry="58" fill="#B8860B" transform="rotate(112.5 200 200)" opacity="0.75"/>
<ellipse cx="200" cy="200" rx="130" ry="69" fill="#B8860B" transform="rotate(135.0 200 200)" opacity="0.75"/>
<ellipse cx="200" cy="200" rx="137" ry="65" fill="#B8860B" transform="rotate(157.5 200 200)" opacity="0.75"/>
<ellipse cx="200" cy="200" rx="144" ry="61" fill="#B8860B" transform="rotate(180.0 200 200)" opacity="0.75"/>
<ellipse cx="200" cy="200" rx="131" ry="57" fill="#B8860B" transform="rotate(202.5 200 200)" opacity="0.75"/>
<ellipse cx="200" cy="200" rx="138" ry="68" fill="#B8860B" transform="rotate(225.0 200 200)" opacity="0.75"/>
<ellipse cx="200" cy="200" rx="145" ry="64" fill="#B8860B" transform="rotate(247.5 200 200)" opacity="0.75"/>
<ellipse cx="200" cy="200" rx="132" ry="60" fill="#B8860B" transform="rotate(270.0 200 200)" opacity="0.75"/>
<ellipse cx="200" cy="200" rx="139" ry="56" fill="#B8860B" transform="rotate(292.5 200 200)" opacity="0.75"/>
<ellipse cx="200" cy="200" rx="146" ry="67" fill="#B8860B" transform="rotate(315.0 200 200)" opacity="0.75"/>
<ellipse cx="200" cy="200" rx="133" ry="63" fill="#B8860B" transform="rotate(337.5 200 200)" opacity="0.75"/>
<circle cx="200" cy="200" r="110" fill="#8B6508" opacity="0.5"/>
<circle cx="132" cy="132" r="22" fill="#DAA520"/>
<circle cx="132" cy="132" r="12" fill="#FFD700" opacity="0.5"/>
<circle cx="268" cy="132" r="22" fill="#DAA520"/>
<circle cx="268" cy="132" r="12" fill="#FFD700" opacity="0.5"/>
<circle cx="200" cy="200" r="90" fill="#DAA520" filter="url(#shadow)"/>
<ellipse cx="200" cy="230" rx="48" ry="38" fill="#FFD700" opacity="0.5"/>
<g clip-path="url(#body-clip)" opacity="0.3">
<circle cx="154" cy="186" r="11" fill="#B8860B"/>
<circle cx="168" cy="232" r="12" fill="#B8860B"/>
<circle cx="182" cy="158" r="5" fill="#B8860B"/>
<circle cx="196" cy="204" r="6" fill="#B8860B"/>
<circle cx="210" cy="250" r="7" fill="#B8860B"/>
<circle cx="224" cy="176" r="8" fill="#B8860B"/>
<circle cx="238" cy="222" r="9" fill="#B8860B"/>
<circle cx="252" cy="148" r="10" fill="#B8860B"/>
<circle cx="146" cy="194" r="11" fill="#B8860B"/>
<circle cx="160" cy="240" r="12" fill="#B8860B"/>
<circle cx="174" cy="166" r="5" fill="#B8860B"/>
<circle cx="188" cy="212" r="6" fill="#B8860B"/>
</g>
<ellipse cx="170" cy="188" rx="12" ry="10" fill="#88DD44"/>
<circle cx="170" cy="188" r="4" fill="#000"/>
<circle cx="172" cy="186" r="2" fill="white" opacity="0.7"/>
<ellipse cx="230" cy="188" rx="12" ry="10" fill="#88DD44"/>
<circle cx="230" cy="188" r="4" fill="#000"/>
<circle cx="232" cy="186" r="2" fill="white" opacity="0.7"/>
<path d="M188 220 Q200 212 212 220 L200 232 Z" fill="#3E2723"/>
<path d="M185 240 Q205 248 222 234" stroke="#3E2723" stroke-width="2.5" fill="none" stroke-linecap="round"/>
<line x1="170" y1="215" x2="130" y2="212" stroke="#3E2723" stroke-width="1" opacity="0.3"/>
<line x1="170" y1="225" x2="130" y2="222" stroke="#3E2723" stroke-width="1" opacity="0.3"/>
<line x1="230" y1="215" x2="270" y2="218" stroke="#3E2723" stroke-width="1" opacity="0.3"/>
<line x1="230" y1="225" x2="270" y2="228" stroke="#3E2723" stroke-width="1" opacity="0.3"/>
<rect x="154" y="176" width="28" height="18" rx="4" fill="#111" opacity="0.85"/>
<rect x="218" y="176" width="28" height="18" rx="4" fill="#111" opacity="0.85"/>
<line x1="182" y1="186" x2="218" y2="186" stroke="#333" stroke-width="2"/>
<line x1="154" y1="182" x2="140" y2="176" stroke="#333" stroke-width="2"/>
<line x1="246" y1="182" x2="260" y2="176" stroke="#333" stroke-width="2"/>
<polygon points="122.0,270.0 122.9,272.7 125.8,272.8 123.5,274.5 124.4,277.2 122.0,275.6 119.6,277.2 120.5,274.5 118.2,272.8 121.1,272.7" fill="#FFD700"/>
<polygon points="244.0,143.0 245.2,146.4 248.8,146.5 245.9,148.6 246.9,152.0 244.0,150.0 241.1,152.0 242.1,148.6 239.2,146.5 242.8,146.4" fill="#FFD700"/>
<polygon points="366.0,16.0 367.4,20.1 371.7,20.1 368.3,22.7 369.5,26.9 366.0,24.4 362.5,26.9 363.7,22.7 360.3,20.1 364.6,20.1" fill="#FFD700"/>
<polygon points="88.0,289.0 89.6,293.7 94.7,293.8 90.7,296.9 92.1,301.7 88.0,298.8 83.9,301.7 85.3,296.9 81.3,293.8 86.4,293.7" fill="#FFD700"/>
<polygon points="210.0,162.0 211.9,167.4 217.6,167.5 213.0,171.0 214.7,176.5 210.0,173.2 205.3,176.5 207.0,171.0 202.4,167.5 208.1,167.4" fill="#FFD700"/>
<polygon points="332.0,40.0 332.9,42.7 335.8,42.8 333.5,44.5 334.4,47.2 332.0,45.6 329.6,47.2 330.5,44.5 328.2,42.8 331.1,42.7" fill="#FFD700"/>
<polygon points="54.0,313.0 55.2,316.4 58.8,316.5 55.9,318.6 56.9,322.0 54.0,320.0 51.1,322.0 52.1,318.6 49.2,316.5 52.8,316.4" fill="#FFD700"/>
<polygon points="176.0,186.0 177.4,190.1 181.7,190.1 178.3,192.7 179.5,196.9 176.0,194.4 172.5,196.9 173.7,192.7 170.3,190.1 174.6,190.1" fill="#FFD700"/>
<polygon points="298.0,59.0 299.6,63.7 304.7,63.8 300.7,66.9 302.1,71.7 298.0,68.8 293.9,71.7 295.3,66.9 291.3,63.8 296.4,63.7" fill="#FFD700"/>
<polygon points="20.0,332.0 21.9,337.4 27.6,337.5 23.0,341.0 24.7,346.5 20.0,343.2 15.3,346.5 17.0,341.0 12.4,337.5 18.1,337.4" fill="#FFD700"/>
</svg>