<svg width="400" height="400" viewBox="0 0 400 400" xmlns="http://www.w3.org/2000/svg">
<defs>
    <filter id="shadow" x="-20%" y="-20%" width="140%" height="140%">
        <feDropShadow dx="2" dy="4" stdDeviation="3" flood-opacity="0.3"/>
    </filter>
    <linearGradient id="sky-gradient" x1="0%" y1="0%" x2="0%" y2="100%">
        <stop offset="0%" stop-color="#87CEEB"/><stop offset="100%" stop-color="#E0F4FF"/>
    </linearGradient>
    <linearGradient id="sunset-gradient" x1="0%" y1="0%" x2="0%" y2="100%">
        <stop offset="0%" stop-color="#FF4500"/><stop offset="100%" stop-color="#FFD700"/>
    </linearGradient>
</defs>
<rect width="400" height="400" fill="#FFF5E6"/>
<ellipse cx="200" cy="200" rx="140" ry="140" fill="#8B4513" transform="rotate(0 200 200)" opacity="0.8"/>
<ellipse cx="200" cy="200" rx="140" ry="140" fill="#8B4513" transform="rotate(30 200 200)" opacity="0.8"/>
<ellipse cx="200" cy="200" rx="140" ry="140" fill="#8B4513" transform="rotate(60 200 200)" opacity="0.8"/>
<ellipse cx="200" cy="200" rx="140" ry="140" fill="#8B4513" transform="rotate(90 200 200)" opacity="0.8"/>
<ellipse cx="200" cy="200" rx="140" ry="140" fill="#8B4513" transform="rotate(120 200 200)" opacity="0.8"/>
<ellipse cx="200" cy="200" rx="140" ry="140" fill="#8B4513" transform="rotate(150 200 200)" opacity="0.8"/>
<ellipse cx="200" cy="200" rx="140" ry="140" fill="#8B4513" transform="rotate(180 200 200)" opacity="0.8"/>
<ellipse cx="200" cy="200" rx="140" ry="140" fill="#8B4513" transform="rotate(210 200 200)" opacity="0.8"/>
<ellipse cx="200" cy="200" rx="140" ry="140" fill="#8B4513" transform="rotate(240 200 200)" opacity="0.8"/>
<ellipse cx="200" cy="200" rx="140" ry="140" fill="#8B4513" transform="rotate(270 200 200)" opacity="0.8"/>
<ellipse cx="200" cy="200" rx="140" ry="140" fill="#8B4513" transform="rotate(300 200 200)" opacity="0.8"/>
<ellipse cx="200" cy="200" rx="140" ry="140" fill="#8B4513" transform="rotate(330 200 200)" opacity="0.8"/>
<circle cx="200" cy="200" r="120" fill="#A0522D" filter="url(#shadow)"/>
<circle cx="130" cy="130" r="25" fill="#CD853F"/>
<circle cx="270" cy="130" r="25" fill="#CD853F"/>
<circle cx="200" cy="200" r="90" fill="#CD853F" filter="url(#shadow)"/>
<ellipse cx="200" cy="230" rx="45" ry="35" fill="#DEB887" opacity="0.6"/>
<path d="M160 190 Q180 175 200 190" stroke="#000" stroke-width="2" fill="none" opacity="0.5"/>
<ellipse cx="170" cy="190" rx="12" ry="10" fill="#FFD700"/>
<ellipse cx="230" cy="190" rx="12" ry="10" fill="#FFD700"/>
<circle cx="170" cy="190" r="4" fill="#000"/>
<circle cx="230" cy="190" r="4" fill="#000"/>
<path d="M180 220 L220 220 L200 245 Z" fill="#3E2723"/>
<path d="M200 245 L200 255" stroke="#3E2723" stroke-width="2"/>
<path d="M180 260 Q190 270 200 255" stroke="#3E2723" stroke-width="2" fill="none"/>
<path d="M220 260 Q210 270 200 255" stroke="#3E2723" stroke-width="2" fill="none"/>
</svg>